<?xml version="1.0" encoding="utf-8" standalone="yes"?>
<!DOCTYPE svg PUBLIC "-//W3C//DTD SVG 1.1//EN" "http://www.w3.org/Graphics/SVG/1.1/DTD/svg11.dtd">
<svg width="825" height="577" viewBox="0 0 825 577" style="fill:none;stroke:none;fill-rule:evenodd;clip-rule:evenodd;stroke-linecap:round;stroke-linejoin:round;stroke-miterlimit:1.5;" version="1.1" xmlns="http://www.w3.org/2000/svg" xmlns:xlink="http://www.w3.org/1999/xlink"><style class="text-font-style fontImports" data-font-family="Roboto">@import url('https://fonts.googleapis.com/css2?family=Roboto:wght@400;700&amp;display=block');</style><style class="text-font-style fontImports" data-font-family="Roboto Slab">@import url('https://fonts.googleapis.com/css2?family=Roboto+Slab:wght@400;700&amp;display=block');</style><g id="items" style="isolation: isolate"><g id="blend" style="mix-blend-mode: normal"><g id="g-root-sy_3_cu_1q6d3yny6zr4f-fill" data-item-order="-253844" transform="translate(280.1863708496094, 184.8154296875)"><g id="sy_3_cu_1q6d3yny6zr4f-fill" stroke="none" fill="#92bd39"><g><path d="M 48.677269 90.489571C 47.056786 89.123741 46.168072 88.374855 45.278286 87.625122C 44.390797 86.87735 43.502457 86.128838 41.886494 84.766785L 41.716812 95.304344L 48.677269 90.489571ZM 34.30061 73.543671L 33.528168 70.239632L 32.755875 66.935585L 32.755875 73.992126L 34.30061 73.543671ZM 209.843201 65.916267L 209.224182 69.228203C 209.061539 70.095062 208.900116 70.961807 208.603973 72.540245L 209.843201 72.881096L 209.843201 65.916267ZM 176.010162 143.480042L 179.354019 142.236084L 179.354019 98.541389L 176.010162 99.785355L 175.741913 99.884995C 173.542603 100.703323 172.224472 101.193298 168.673065 102.513977L 174.085159 114.081413L 174.085159 144.195786L 176.010162 143.480042ZM 140.630676 151.880371L 140.645599 151.878677C 142.340607 151.688354 144.039734 151.497681 147.126862 151.151382L 147.126862 107.456581C 145.24324 107.667892 143.87645 107.82132 142.712006 107.952034L 140.630676 108.185684C 138.930695 108.376587 137.230728 108.567383 134.134369 108.914749L 134.134369 152.609451C 137.230728 152.262192 138.930695 152.071289 140.630676 151.880371ZM 103.902252 152.090698L 110.430222 152.744904L 110.430222 109.050209L 103.902252 108.395996L 97.374275 107.741936L 97.374275 151.43663L 103.902252 152.090698ZM 64.744049 142.895142L 70.174805 144.819427L 70.727524 145.015182L 70.727524 114.67543L 75.605568 103.048988L 70.174805 101.124733L 64.744049 99.200447L 64.744049 142.895142ZM 198.273804 86.750374C 199.129517 85.990822 199.982773 85.231865 201.539993 83.848068L 201.539993 93.947998L 195.014908 89.647346C 196.568497 88.26696 197.421753 87.508255 198.273804 86.750374ZM 229.43045 120.221275L 229.43045 106.400627L 229.43045 100.117943L 229.43045 78.270592C 228.253128 80.155762 227.782196 80.909393 227.311264 81.662498C 226.840332 82.416382 226.369385 83.169601 225.190842 85.056511L 225.190842 118.552383L 229.43045 120.221275ZM 161.155045 160.742264L 174.085052 157.776001L 174.085052 144.195816L 174.085052 114.081299L 161.155045 117.047577L 161.155045 160.742264ZM 115.435493 164.35849L 129.662216 164.276672L 129.662216 120.581978L 115.435493 120.663795L 115.435493 164.35849ZM 70.727562 158.37001L 83.791168 161.186386L 83.791168 117.491692L 70.727562 114.675316L 70.727562 145.015228L 70.727562 158.37001ZM 44.398834 124.277573L 44.398834 105.346977L 39.577614 102.732956L 34.75639 100.119011L 34.75639 125.081573L 44.398834 124.277573ZM 206.45433 100.773849L 209.377014 99.114182L 209.377014 127.943207L 209.377014 137.498642L 199.977814 137.367416L 199.977814 104.451859C 203.898178 102.225136 204.285355 102.005447 206.442184 100.780151L 206.45433 100.773849ZM 15.67078 82.361748C 16.33736 83.348167 16.74688 83.954041 18.29743 86.247551L 18.29743 105.421501L 13.744936 107.498215L 13.744936 79.51226L 15.67078 82.361748ZM 232.433914 62.213261L 209.84375 65.915787L 209.84375 72.880577L 229.431122 78.270073L 229.431122 106.400108L 232.433914 105.907951L 232.433914 62.213261ZM 220.456696 39.873013L 202.833191 47.846195C 203.84787 49.348202 204.406189 50.172947 204.963303 50.997688C 205.520401 51.82254 206.077515 52.647266 207.09343 54.149292L 220.456696 54.714901L 220.456696 39.873013ZM 191.329346 21.897985L 181.720169 32.763153L 186.231613 35.209583L 190.743103 37.655865L 191.329346 21.897985ZM 50.543217 38.461792L 59.339214 33.466885L 49.231762 22.715191L 49.231762 38.250847L 50.543217 38.461792ZM 37.93998 50.36824L 37.948685 50.354404L 38.927479 48.788189L 20.940414 41.020119L 20.940414 55.895267L 34.959633 55.139088C 36.457512 52.740238 36.88533 52.055824 37.93998 50.36824ZM 32.756058 66.934952L 9.999998 63.493637L 9.999998 107.188332L 13.314488 107.689491L 13.745232 107.488617L 13.745232 79.511742L 32.756058 73.991638L 32.756058 66.934952ZM 41.886677 84.766266L 18.297615 86.247032L 18.297615 105.436279L 21.263517 104.074486L 32.463329 107.693008L 32.463329 125.286446L 34.756687 125.073425L 34.756687 100.11853L 41.716995 95.303757L 41.886677 84.766266ZM 179.354568 142.235596L 186.751114 144.356018L 186.751114 142.874512L 190.434814 137.237762L 199.97847 137.37056L 199.97847 104.45134L 179.354568 98.540901L 179.354568 142.235596ZM 147.127304 151.150528L 161.155716 160.741531L 161.155716 117.047058L 147.127304 107.4561L 147.127304 151.150528ZM 129.662399 164.275925L 134.134186 152.609451L 134.134186 108.914268L 129.662399 120.58149L 129.662399 164.275925ZM 110.430443 152.744156L 115.435791 164.358459L 115.435791 120.663277L 110.430443 109.049728L 110.430443 152.744156ZM 83.791359 161.18576L 97.374458 151.435776L 97.374458 107.741417L 83.791359 117.491173L 83.791359 161.18576ZM 201.539322 83.847588L 225.190323 85.055992L 225.190323 118.585976L 223.305374 117.865387L 213.690109 121.337044L 213.690109 128.163116L 209.37645 127.942688L 209.37645 99.113663L 201.539322 93.947517L 201.539322 83.847588ZM 121.218552 43.557446C 97.087067 43.557446 77.523849 53.322735 77.523849 65.368362C 77.523849 74.064354 87.719276 81.571709 102.468674 85.074814C 108.150528 83.725243 114.508118 82.970062 121.219032 82.970062C 127.929794 82.970062 134.287125 83.725243 139.968643 85.074699C 154.718048 81.571602 164.913467 74.06424 164.913467 65.368362C 164.913467 53.322735 145.350403 43.557446 121.218552 43.557446ZM 44.399132 105.346497L 64.744232 99.199966L 64.744232 129.061539L 59.176792 123.059944L 44.399132 124.288017L 44.399132 105.346497ZM 10.661837 59.955421C 10.762846 59.415073 11.32212 56.414948 11.32212 56.414948L 20.940414 55.896046L 34.959633 55.139904C 36.457512 52.741051 36.88533 52.056637 37.93998 50.369038C 37.942871 50.364426 37.945797 50.359814 37.948685 50.355202L 38.927479 48.789112L 20.940414 41.020935L 23.189621 39.021046C 24.725245 37.655716 25.048201 37.368542 27.911316 34.823677L 49.231762 38.25177L 50.543217 38.462605L 59.339214 33.467812L 49.231762 22.716005C 51.268913 21.958639 52.520512 21.493282 53.491158 21.132435C 55.543827 20.369234 56.338715 20.073689 60.646149 18.4718L 78.359001 26.395826C 81.242607 25.734451 82.825935 25.371307 84.409264 25.008032C 85.992599 24.644888 87.576042 24.281614 90.459526 23.620237L 89.977928 11.743421C 93.837021 11.310603 95.378571 11.137642 96.920273 10.964682C 98.461601 10.791611 100.003075 10.618521 103.860802 10.185332L 113.591141 21.024164C 116.799179 21.005718 118.54467 20.995773 120.305908 20.985569C 122.029442 20.975624 123.767899 20.965677 126.906113 20.947714L 136.135666 10C 142.018646 10.588906 142.541779 10.641467 145.837112 10.97172C 146.885773 11.07684 148.214813 11.209982 150.086395 11.397629L 150.153183 23.276762C 153.066147 23.904745 154.665848 24.249685 156.265564 24.594513C 157.865265 24.939341 159.464996 25.284281 162.379196 25.912264L 179.722351 17.786997C 182.948456 18.929621 184.237427 19.386106 185.525223 19.842592C 186.814224 20.29921 188.103241 20.755806 191.329346 21.898802L 181.720169 32.76408C 183.870911 33.930134 185.050659 34.570248 186.231613 35.210381C 187.412613 35.850513 188.592346 36.490757 190.743103 37.656792L 213.200958 33.758377C 215.218216 35.458828 216.024139 36.137688 216.830063 36.817249C 217.634766 37.495979 218.440704 38.175301 220.456696 39.873829L 202.833191 47.847008C 203.84787 49.349018 204.406189 50.173759 204.963303 50.998615C 205.520401 51.823357 206.077515 52.648193 207.09343 54.150219L 220.456696 54.715679L 230.783249 55.152756C 231.24202 57.115269 231.425308 57.899342 231.608582 58.683414C 231.791855 59.467598 231.975128 60.251709 232.433914 62.214184L 209.84375 65.916603C 209.547623 67.495041 209.386154 68.361786 209.223557 69.228645C 209.062088 70.09539 208.899445 70.962105 208.604538 72.540581L 209.84375 72.881393L 229.431122 78.271034C 228.253784 80.156212 227.782852 80.909798 227.31192 81.662941C 226.839767 82.416679 226.370056 83.170044 225.190323 85.056923L 201.539322 83.848511C 199.983322 85.232193 199.128845 85.991158 198.274353 86.750816C 197.421127 87.508705 196.567871 88.267288 195.015457 89.647675L 209.37645 99.114479L 206.453781 100.774147C 204.286026 102.005005 203.904907 102.221649 199.97847 104.452156L 179.354568 98.541718C 177.957565 99.061432 176.905243 99.452621 176.010712 99.785683C 175.919662 99.819427 175.82988 99.852692 175.742462 99.885323C 173.541962 100.703621 172.225067 101.193634 168.67363 102.514305L 174.085724 114.081749L 161.155716 117.047867L 147.127304 107.457024C 145.243576 107.66819 143.876892 107.821609 142.711716 107.952332C 141.96283 108.036446 141.296478 108.111229 140.631378 108.185982C 138.930923 108.376923 137.230469 108.567833 134.134186 108.915085L 129.662399 120.58242L 115.435791 120.664093L 110.430443 109.050537C 107.319008 108.738846 105.610779 108.567574 103.902435 108.396446C 102.194237 108.225204 100.485893 108.054039 97.374458 107.742233L 83.791359 117.492096L 70.727745 114.675728L 75.605751 103.049324C 73.017586 102.132202 71.596306 101.628632 70.174988 101.125031C 68.753708 100.621468 67.332436 100.117867 64.744232 99.200783L 44.399132 105.347275C 41.71933 103.894547 40.648563 103.313904 39.577911 102.733368C 38.507145 102.152832 37.436489 101.572182 34.756687 100.119461L 41.716995 95.30468L 48.677452 90.489868C 47.056969 89.124039 46.168297 88.375191 45.278473 87.625458C 44.390984 86.877647 43.502678 86.129128 41.886677 84.767082L 18.297615 86.247849C 16.747175 83.954483 16.337656 83.348465 15.671076 82.362045C 15.249556 81.738426 14.725323 80.962837 13.745232 79.512672L 32.756058 73.992455L 34.300793 73.543968C 33.932796 71.969269 33.730595 71.104599 33.528389 70.239922C 33.326298 69.375145 33.124092 68.510468 32.756058 66.935883L 9.999998 63.49445C 10.367994 61.527454 10.51486 60.741421 10.661837 59.955421ZM 164.911057 65.331917C 164.911057 53.286289 145.346741 43.521 121.215736 43.521C 97.084251 43.521 77.521042 53.286289 77.521042 65.331917C 77.521042 77.377586 97.084251 87.142853 121.215736 87.142853C 145.346741 87.142853 164.911057 77.377586 164.911057 65.331917Z"></path></g></g></g><g id="g-root-sy_5_cu_v4926ny6zrwo-fill" data-item-order="-253840" transform="translate(587.6280517578125, 222.31103515625)"><g id="sy_5_cu_v4926ny6zrwo-fill" stroke="none" fill="#7f64ea"><g><path d="M 21.261187 99.940994L 21.261187 79.12252C 19.816238 77.538818 19.165586 76.825386 18.521082 76.118874L 18.505304 76.101501L 18.487228 76.081726C 17.843687 75.376328 17.192738 74.662628 15.749864 73.081116L 15.749864 100.01297L 21.261187 99.940994ZM 56.374504 81.311279L 54.542408 80.253479C 52.508293 79.079185 51.354706 78.4132 48.69046 76.87587L 48.69046 93.348534L 56.374504 81.311279ZM 55.023491 125.927544L 59.127274 127.246773L 59.127274 98.116714L 55.023491 96.797523L 54.959778 96.777C 52.928703 96.124016 51.913647 95.79776 47.941723 94.521385L 47.941723 123.651405C 51.95491 124.941002 52.949448 125.260742 55.023491 125.927544ZM 85.403481 118.790253L 91.045181 119.62011L 91.045181 90.490051L 85.403481 89.660233L 79.771332 88.831711L 79.771332 117.961769L 85.403481 118.790253ZM 119.058434 119.610512C 123.854431 118.911636 125.283157 118.703468 130.164276 117.991364L 130.164276 88.861343C 125.283157 89.573448 123.854431 89.781616 119.058434 90.480461L 118.879677 90.506569L 118.879677 119.636589L 119.058434 119.610512ZM 37.163395 64.239738C 36.80114 62.96907 36.56823 62.153439 36.335392 61.337807C 36.102631 60.522179 35.86972 59.706436 35.507393 58.435875L 35.507393 64.923431L 37.163395 64.239738ZM 111.574409 133.012894L 111.574409 103.88295L 98.269035 103.874733L 98.269035 133.004745L 111.574409 133.012894ZM 159.36586 124.549232L 161.960846 123.72023L 161.960846 94.59021L 159.36586 95.419174C 156.058365 96.475975 155.631149 96.612282 150.753143 98.171837L 150.753143 127.301849C 155.631149 125.74234 156.058365 125.606033 159.36586 124.549232ZM 161.318787 76.943726L 153.606659 81.369987L 161.318787 93.573814L 161.318787 76.943726ZM 191.508163 105.335457C 192.162369 104.624092 192.816574 103.912842 194.282791 102.317955L 194.282791 73.187935C 192.816574 74.782791 192.162369 75.494148 191.508163 76.205399C 190.853958 76.916649 190.200928 77.628052 188.734726 79.2229L 188.734726 108.352921C 190.200928 106.758072 190.853958 106.046707 191.508163 105.335457ZM 174.6129 58.519623C 174.286346 59.640503 174.061813 60.407242 173.850601 61.132454C 173.583618 62.050392 173.334778 62.901951 172.92215 64.321198L 174.6129 65.02285L 174.6129 58.519623ZM 39.509613 44.696495C 40.909298 43.174576 41.654625 42.36343 42.59938 41.335518L 44.408585 39.367077L 28.923599 27.857647L 28.923599 45.335407L 39.509613 44.696495ZM 35.507244 58.436913L 10 52.931107L 10 82.061165L 15.749716 83.3022L 15.749716 73.082153L 35.507244 64.924469L 35.507244 58.436913ZM 48.690163 76.687187L 21.261114 78.933838L 21.261114 99.944923L 35.851719 99.745605L 39.549763 105.378944L 39.549763 106.565865L 47.941578 105.878548L 47.941578 94.332703L 48.690163 93.159851L 48.690163 76.687187ZM 59.127201 127.247772L 79.771103 117.962662L 79.771103 88.832748L 59.127201 98.117752L 59.127201 127.247772ZM 91.045036 119.621109L 98.26889 133.005783L 98.26889 103.875732L 91.045036 90.491089L 91.045036 119.621109ZM 111.574188 133.013901L 118.879532 119.63752L 118.879532 90.507462L 111.574188 103.883881L 111.574188 133.013901ZM 105.936188 34.721615C 81.804703 34.721615 62.241489 44.486885 62.241489 56.532551C 62.241489 62.130436 66.466545 67.235909 73.411705 71.097557C 81.41111 66.649666 93.019218 63.851631 105.936188 63.851631C 118.85331 63.851631 130.461411 66.649666 138.461197 71.097557C 145.406204 67.235909 149.631256 62.130436 149.631256 56.532551C 149.631256 44.486885 130.067825 34.721615 105.936188 34.721615ZM 130.163986 117.992882L 150.752762 127.303146L 150.752762 98.173096L 130.163986 88.862823L 130.163986 117.992882ZM 188.734344 79.224159L 161.317154 76.944984L 161.317154 93.575073L 161.960464 94.591469L 161.960464 106.128311L 188.734344 108.354218L 188.734344 79.224159ZM 200.150818 53.045933L 174.611267 58.520882L 174.611267 65.024109L 194.28241 73.189194L 194.28241 83.434143L 200.150818 82.175987L 200.150818 53.045933ZM 181.377899 27.949545L 165.823792 39.440865C 167.044785 40.779617 167.765747 41.569172 168.558334 42.438694L 170.692093 44.776466L 181.377899 45.434452L 181.377899 27.949545ZM 106.598694 103.88047C 104.192322 103.879028 102.979324 103.878433 98.264145 103.875511L 98.26889 103.875137L 91.045036 90.490494C 88.574364 90.12709 86.989182 89.893921 85.403328 89.660645C 83.820518 89.427734 82.236961 89.194824 79.771103 88.832161L 59.127201 98.117271C 57.227913 97.506775 56.004692 97.11351 55.023266 96.797928C 55.00193 96.791 54.980671 96.784225 54.959557 96.777412C 52.928482 96.12442 51.913425 95.798172 47.941578 94.521797L 48.690163 93.348984L 56.374428 81.311684L 54.542259 80.253922C 52.508144 79.079628 51.354485 78.413643 48.690163 76.876312L 21.261114 79.122932C 19.816166 77.539261 19.165365 76.825829 18.520935 76.119431C 18.5156 76.113579 18.510416 76.107765 18.505081 76.101944C 18.499081 76.09539 18.493006 76.088837 18.48708 76.082169C 17.843538 75.376732 17.192663 74.66304 15.749716 73.081665L 35.507244 64.923882L 37.163322 64.240189C 36.800842 62.969513 36.568081 62.153885 36.335247 61.338215C 36.102337 60.522583 35.869572 59.706955 35.507244 58.436279L 10 52.930664C 10.506121 51.194504 10.731549 50.420284 10.956903 49.646027C 11.182331 48.871769 11.407685 48.097401 11.913806 46.361389L 28.923599 45.334927L 39.509613 44.696014C 40.909298 43.174095 41.654625 42.362946 42.59938 41.335037C 43.102833 40.78717 43.662884 40.177856 44.408585 39.366486L 28.923599 27.857054C 32.640533 25.722931 33.040127 25.49365 35.467091 24.100782C 36.052998 23.764566 36.756912 23.360491 37.654255 22.845518L 62.670937 28.884853L 72.569107 25.721338L 72.0215 11.862117C 73.348442 11.668765 74.386536 11.517548 75.249207 11.391925C 78.775681 10.878026 79.371666 10.79124 84.797424 10L 99.29039 21.826202L 111.045845 21.833387L 125.609856 10.024521C 128.982605 10.520326 130.487274 10.741606 131.991928 10.962867C 133.497025 11.184128 135.000793 11.40563 138.375031 11.901935L 137.743866 25.760416C 139.904358 26.454926 141.292862 26.900854 142.678986 27.346563C 144.069931 27.793344 145.458435 28.239756 147.624924 28.935932L 172.676575 22.92671L 181.377899 27.948433L 165.823792 39.439789C 167.044785 40.778652 167.765747 41.568096 168.558334 42.437733C 169.150696 43.085754 169.781784 43.778191 170.692093 44.775501L 181.377899 45.43338L 198.276779 46.47377L 200.150818 53.044857L 174.611267 58.519806C 174.28598 59.64069 174.061432 60.407425 173.850235 61.132751C 173.583252 62.05069 173.334412 62.902138 172.921783 64.321381L 174.611267 65.023033L 194.28241 73.188126C 192.816208 74.783081 192.162003 75.494339 191.507797 76.205589C 190.853577 76.916985 190.200562 77.628235 188.734344 79.223198L 161.318405 76.943916L 153.606293 81.370323L 161.318405 93.574005L 161.960464 94.590393L 159.365494 95.419357C 156.057999 96.476311 155.630768 96.612579 150.752762 98.172127L 130.1642 88.861755C 125.28286 89.573853 123.85421 89.782021 119.058365 90.480904L 118.879532 90.506981L 111.574188 103.8834L 106.598694 103.88047ZM 105.936188 34.72113C 81.804703 34.72113 62.241489 44.486401 62.241489 56.53207C 62.241489 62.129955 66.466545 67.235313 73.411705 71.097076C 81.41111 75.544968 93.019218 78.343002 105.936188 78.343002C 118.85331 78.343002 130.461411 75.544968 138.461197 71.097076C 145.406204 67.235313 149.631256 62.129955 149.631256 56.53207C 149.631256 44.486401 130.067825 34.72113 105.936188 34.72113Z"></path></g></g></g><g id="g-root-sy_1_cu_1q7m24vy6ztah-fill" data-item-order="-253836" transform="translate(20, 250.19287109375)"><g id="sy_1_cu_1q7m24vy6ztah-fill" stroke="none" fill="#4e88e7"><g><path d="M 84.162155 106.3564L 96.051727 106.3564L 96.051727 91.791504L 84.162155 91.791504L 84.162155 106.3564ZM 70.032387 92.891159C 72.249771 93.249084 73.832489 93.504585 76.830673 93.988853L 76.830673 79.423958C 73.74073 78.924873 72.154129 78.668777 69.826775 78.293114L 67.10569 77.853737L 67.10569 92.418633L 70.032387 92.891159ZM 46.545399 100.282104L 46.545399 85.717201L 36.925522 82.244217L 36.925522 96.809113L 46.545399 100.282104ZM 45.621616 70.097351L 43.441982 68.606995C 42.254086 67.794739 41.292442 67.137268 39.610683 65.986641L 39.610683 78.4935L 45.621616 70.097351ZM 11.335485 77.330505C 12.027187 78.388412 12.374932 78.92028 13.675089 80.907761L 13.675089 66.342857C 12.377118 64.358643 12.02828 63.825222 11.338754 62.770828L 10 60.723492L 10 75.288391L 11.335485 77.330505ZM 140.603455 65.986641L 138.40416 67.490227L 138.402939 67.491081C 137.224396 68.296745 136.264328 68.9534 134.591782 70.097351L 140.795212 78.761375L 140.603455 65.986641ZM 106.084877 93.55278C 108.422905 93.175301 110.009628 92.91909 113.108192 92.418633L 113.108192 77.853737C 110.009628 78.354187 108.422905 78.610397 106.084877 78.987877L 103.383202 79.423958L 103.383202 93.988853L 106.084877 93.55278ZM 133.668121 100.282104L 140.682343 97.750015L 140.682343 83.964706L 143.288239 83.400543L 143.288239 82.244217C 140.787933 83.146744 139.633652 83.56382 138.47818 83.980705C 137.323914 84.397636 136.168427 84.814674 133.668121 85.717201L 133.668121 100.282104ZM 76.830673 93.988487L 84.162155 106.356033L 84.162155 91.79113L 76.830673 79.423584L 76.830673 93.988487ZM 46.545399 100.281731L 67.10569 92.418266L 67.10569 77.853363L 46.545399 85.716835L 46.545399 100.281731ZM 39.610683 65.98616L 13.675089 66.342491L 13.675089 80.907387L 38.122761 80.571541L 39.610683 78.493126L 39.610683 65.98616ZM 31.402752 53.436672L 31.402752 48.354721L 10 41.068272L 10 55.633171L 17.47543 58.178146L 31.402752 53.436672ZM 39.610683 35.805119L 41.794811 34.31176C 42.980515 33.500942 43.941917 32.843586 45.621616 31.694443L 36.925522 19.547546L 36.925522 34.112446L 38.122761 35.784748L 39.610683 35.805119ZM 148.81076 48.354721L 148.81076 53.436672L 162.738449 58.178146L 170.213882 55.633171L 170.213882 41.068272L 148.81076 48.354721ZM 143.288239 19.547546L 134.591782 31.694443L 136.795929 33.201065L 136.820206 33.217918C 137.986618 34.014992 138.94426 34.670162 140.603455 35.805119L 142.091492 35.784748L 143.288239 34.112446L 143.288239 19.547546ZM 113.108192 92.418266L 133.668121 100.281731L 133.668121 85.716835L 113.108192 77.853363L 113.108192 92.418266ZM 96.051727 106.356033L 103.383202 93.988487L 103.383202 79.423584L 96.051727 91.79113L 96.051727 106.356033ZM 140.603455 65.98616L 140.795212 78.761009L 142.091492 80.571541L 146.451248 80.631401L 146.451248 66.066505L 140.603455 65.98616ZM 90.106941 29.084574C 114.238426 29.084574 133.801636 38.849846 133.801636 50.895512C 133.801636 53.449226 132.922409 55.90049 131.306671 58.177959C 127.353264 52.605446 118.991089 48.074028 108.313065 45.627617C 102.77063 44.357796 96.60434 43.649841 90.106941 43.649841C 84.772423 43.649841 79.66124 44.127071 74.935173 45.000595C 62.814629 47.240952 53.227894 52.087769 48.907219 58.177959C 47.291607 55.90049 46.412247 53.449226 46.412247 50.895512C 46.412247 38.849846 65.975456 29.084574 90.106941 29.084574ZM 148.81076 53.436523L 148.81076 48.354462L 170.213882 41.068012L 168.770752 38.860474C 168.146881 37.907089 167.769394 37.329926 166.538681 35.448643L 140.603455 35.805008C 138.94548 34.670979 137.987839 34.015953 136.823868 33.219955L 136.820206 33.217659L 134.591782 31.694183L 143.288239 19.547398L 133.668121 16.074299L 113.108192 23.937765L 110.340385 23.490984C 108.038391 23.11932 106.452522 22.863222 103.383202 22.367546L 96.051727 9.999999L 84.162155 9.999999L 76.830673 22.367546L 74.051323 22.816254C 71.755539 23.186808 70.169777 23.442905 67.10569 23.937765L 46.545399 16.074299L 36.925522 19.547398L 45.621616 31.694183C 43.941917 32.843475 42.980515 33.500721 41.794811 34.311501L 39.610683 35.805008L 13.675089 35.448643L 12.334392 37.498905C 11.646198 38.551334 11.296759 39.085606 10 41.068012L 31.402752 48.354462L 31.402752 53.436523L 10 60.722862L 11.338754 62.770199C 12.02828 63.824593 12.377118 64.358009 13.675089 66.342377L 39.610683 65.986015C 41.292442 67.136635 42.254086 67.79425 43.441982 68.606369L 45.621616 70.096725L 36.925522 82.243584L 46.545399 85.716721L 67.10569 77.853256L 69.826775 78.292519C 72.154129 78.668297 73.74073 78.924393 76.830673 79.423363L 84.162155 91.791023L 96.051727 91.791023L 103.383202 79.423363L 106.084877 78.987251C 108.422905 78.609772 110.009628 78.353668 113.108192 77.853256L 133.668121 85.716721L 143.288239 82.243584L 134.591782 70.096725C 136.264328 68.952766 137.224396 68.296265 138.402939 67.490562L 138.40416 67.489708L 140.603455 65.986015L 146.417267 66.065872L 146.417267 63.774696L 151.945862 57.769699L 164.522659 58.785385L 148.81076 53.436523ZM 133.801636 50.895435C 133.801636 38.84977 114.238426 29.084499 90.106941 29.084499C 65.975456 29.084499 46.412247 38.84977 46.412247 50.895435C 46.412247 53.449265 47.291607 55.900566 48.907219 58.177887C 54.912567 66.642776 71.091492 72.706375 90.106941 72.706375C 109.122383 72.706375 125.301315 66.642776 131.306671 58.177887C 132.922897 55.900566 133.801636 53.449265 133.801636 50.895435Z"></path></g></g></g><g id="g-root-sy_4_cu_hunz2ny6zshu-fill" data-item-order="-253832" transform="translate(456.94696044921875, 286.60498046875)"><g id="sy_4_cu_hunz2ny6zshu-fill" stroke="none" fill="#1eabda"><g><path d="M 84.162178 106.356384L 96.05172 106.356384L 96.05172 91.791489L 84.162178 91.791489L 84.162178 106.356384ZM 69.826782 92.857994L 70.032394 92.891144C 72.249786 93.249069 73.832481 93.50457 76.830688 93.988838L 76.830688 79.423943C 73.740738 78.924858 72.154144 78.668762 69.826782 78.293098L 67.105682 77.853722L 67.105682 92.418617L 69.826782 92.857994ZM 41.735455 98.545593L 46.545414 100.282082L 46.545414 85.717186L 41.735455 83.98069L 36.925529 82.244202L 36.925529 96.809097L 41.735455 98.545593ZM 45.621628 70.097336L 43.441982 68.606979C 42.254093 67.794716 41.29245 67.137253 39.610703 65.986626L 39.610703 78.493484L 45.621628 70.097336ZM 11.335506 77.33049C 12.0272 78.388397 12.374935 78.920265 13.675092 80.907745L 13.675092 66.342842C 12.37712 64.358627 12.028311 63.825207 11.338765 62.770813L 11.335506 62.765591L 10.000012 60.723476L 10.000012 75.288376L 11.335506 77.33049ZM 167.943008 78.76136C 168.589874 77.770714 168.957687 77.209587 170.213882 75.288376L 170.213882 60.723476C 168.957687 62.644688 168.589874 63.205814 167.943008 64.196465L 166.538651 66.342842L 166.538651 80.907745L 167.943008 78.76136ZM 140.603455 65.986626L 138.404129 67.490211L 138.402954 67.491058C 137.224396 68.29673 136.264313 68.953384 134.591782 70.097336L 140.795242 78.76136L 140.603455 65.986626ZM 138.47821 98.545593L 143.288208 96.809097L 143.288208 82.244202L 138.47821 83.98069L 133.668137 85.717186L 133.668137 100.282082L 138.47821 98.545593ZM 106.0849 93.552757C 108.422928 93.175285 110.009628 92.919075 113.108215 92.418617L 113.108215 77.853722C 110.009628 78.354172 108.422928 78.610382 106.0849 78.987862L 103.383209 79.423943L 103.383209 93.988838L 106.0849 93.552757ZM 76.830688 93.988281L 84.162178 106.355827L 84.162178 91.790932L 76.830688 79.423386L 76.830688 93.988281ZM 46.545414 100.281563L 67.105682 92.41806L 67.105682 77.853165L 46.545414 85.716667L 46.545414 100.281563ZM 39.610703 65.985962L 13.675092 66.342293L 13.675092 80.907188L 38.122749 80.571342L 39.610703 78.492928L 39.610703 65.985962ZM 31.402761 53.43647L 31.402761 48.354519L 10.000012 41.068069L 10.000012 55.632969L 17.475441 58.177944L 31.402761 53.43647ZM 39.610703 35.804916L 41.79483 34.311558C 42.980534 33.500744 43.941917 32.843384 45.621628 31.694242L 36.925529 19.547344L 36.925529 34.112244L 38.122749 35.784546L 39.610703 35.804916ZM 148.810791 48.354519L 148.810791 53.43647L 162.738449 58.177944L 170.213882 55.632969L 170.213882 41.068069L 166.538651 42.319183L 148.810791 48.354519ZM 143.288208 19.547344L 134.591782 31.694242L 136.795914 33.200863L 136.820206 33.217716C 137.986618 34.01479 138.94426 34.66996 140.603455 35.804916L 142.091507 35.784546L 143.288208 34.112244L 143.288208 19.547344ZM 166.538651 66.342293L 140.603455 65.985962L 140.795242 78.760803L 142.091507 80.571342L 166.538651 80.907188L 166.538651 66.342293ZM 113.108215 92.41806L 133.668137 100.281563L 133.668137 85.716667L 113.108215 77.853165L 113.108215 92.41806ZM 96.05172 106.355827L 103.383209 93.988281L 103.383209 79.423386L 96.05172 91.790932L 96.05172 106.355827ZM 90.106949 29.08441C 114.238426 29.08441 133.801636 38.849682 133.801636 50.895348C 133.801636 53.449062 132.922379 55.900326 131.306671 58.177795C 127.353264 52.605282 118.991089 48.073864 108.313065 45.627453C 102.77063 44.357632 96.604362 43.649677 90.106949 43.649677C 84.772415 43.649677 79.661247 44.126907 74.935181 45.000431C 62.814617 47.240788 53.227882 52.087605 48.907227 58.177795C 47.291595 55.900326 46.412254 53.449062 46.412254 50.895348C 46.412254 38.849682 65.975464 29.08441 90.106949 29.08441ZM 170.213882 41.067997L 148.810791 48.354446L 148.810791 53.436508L 170.213882 60.722847C 168.957687 62.644096 168.589874 63.205185 167.943008 64.195984C 167.60556 64.711212 167.192856 65.342712 166.538651 66.342361L 140.603455 65.986C 139.716187 66.592606 139.029236 67.062096 138.404129 67.489693L 138.402954 67.49054C 137.224396 68.296249 136.264313 68.952751 134.591782 70.09671L 143.288208 82.243568C 140.787918 83.146248 139.633652 83.563171 138.47821 83.980064C 137.323883 84.397102 136.168442 84.814026 133.668137 85.716705L 113.108215 77.853241C 110.009628 78.353653 108.422928 78.609756 106.0849 78.987236L 103.383209 79.423347L 96.05172 91.791008L 84.162178 91.791008L 76.830688 79.423347C 73.740738 78.924377 72.154144 78.668274 69.826782 78.292503C 69.034935 78.164673 68.15741 78.023033 67.105682 77.853241L 46.545414 85.716705C 44.045113 84.814026 42.890228 84.397102 41.735455 83.980064C 40.580719 83.563171 39.425835 83.146248 36.925529 82.243568L 45.621628 70.09671C 44.743732 69.496391 44.061966 69.030312 43.441982 68.606346C 42.254093 67.794235 41.29245 67.13662 39.610703 65.986L 13.675092 66.342361C 12.37712 64.357994 12.028311 63.824577 11.338765 62.770184L 11.335506 62.765106C 11.01081 62.268543 10.610291 61.656078 10.000012 60.722847L 31.402761 53.436508L 31.402761 48.354446L 10.000012 41.067997C 11.296762 39.08559 11.646201 38.551319 12.334413 37.49889C 12.660035 37.000881 13.061442 36.386971 13.675092 35.448627L 39.610703 35.804993C 40.490635 35.203197 41.173515 34.736263 41.79483 34.311485C 42.980534 33.500706 43.941917 32.84346 45.621628 31.694168L 36.925529 19.547382C 39.425835 18.644743 40.580719 18.227816 41.735455 17.810778C 42.890228 17.39385 44.045113 16.976812 46.545414 16.074284L 67.105682 23.93775C 70.169777 23.44289 71.755554 23.186792 74.051323 22.816238L 76.830688 22.367531L 84.162178 9.999983L 96.05172 9.999983L 103.383209 22.367531C 107.524513 23.036407 108.965347 23.268837 113.108215 23.93775L 133.668137 16.074284C 136.168442 16.976812 137.323883 17.39385 138.47821 17.810778C 139.633652 18.227816 140.787918 18.644743 143.288208 19.547382L 134.591782 31.694168C 135.481415 32.302223 136.169632 32.772564 136.795914 33.200901C 136.804428 33.206493 136.811691 33.212048 136.820206 33.217644C 137.986618 34.014717 138.94426 34.669998 140.603455 35.804993L 166.538651 35.448627C 167.794922 37.369358 168.162659 37.930706 168.809601 38.92091C 169.146973 39.436363 169.559677 40.068016 170.213882 41.067997ZM 46.412254 50.89542C 46.412254 53.449249 47.291595 55.900547 48.907227 58.177868C 54.912556 66.642761 71.091492 72.70636 90.106949 72.70636C 109.122398 72.70636 125.3013 66.642761 131.306671 58.177868C 132.922897 55.900547 133.801636 53.449249 133.801636 50.89542C 133.801636 38.849754 114.238426 29.084484 90.106949 29.084484C 65.975464 29.084484 46.412254 38.849754 46.412254 50.89542Z"></path></g></g></g><g id="g-root-sy_2_cu_1hduh5by6zt3f-fill" data-item-order="-253828" transform="translate(150.68109130859375, 273.2041015625)"><g id="sy_2_cu_1hduh5by6zt3f-fill" stroke="none" fill="#3cc583"><g><path d="M 28.923563 115.156052C 32.640533 117.290169 33.040089 117.519455 35.467091 118.912361L 37.654255 120.167587L 37.654255 91.037788L 35.467091 89.782562C 33.040089 88.389656 32.640533 88.160378 28.923563 86.026253L 28.923563 97.678291L 28.923563 115.156052ZM 125.609848 132.988586L 131.991959 132.050232L 138.375031 131.111298L 138.375031 117.05011L 138.375031 101.981499L 131.991959 102.920441L 125.609848 103.858788L 125.609848 132.988586ZM 172.676559 120.086395L 181.377884 115.064674L 181.377884 97.579727L 181.377884 85.943726L 181.377884 85.934875L 172.676559 90.956596L 172.676559 120.086395ZM 198.27681 96.53933L 200.150833 89.968246L 200.150833 60.838448L 198.27681 67.409538L 198.27681 89.566505L 198.27681 96.53933ZM 10.000003 90.082443C 10.506143 91.818604 10.731533 92.592857 10.956924 93.367081L 10.958739 93.373154C 11.183519 94.145447 11.40904 94.920181 11.913828 96.651711L 11.913828 89.669441L 11.913828 67.521919C 11.407707 65.785904 11.182316 65.01165 10.956924 64.237282L 10.956183 64.234985C 10.731033 63.461468 10.505642 62.686989 10.000003 60.952644L 10.000003 90.082443ZM 72.021461 131.15097L 75.249168 131.621307L 75.316895 131.631119C 78.783585 132.136276 79.406479 132.226959 84.79744 133.013107L 84.79744 105.57428L 84.79744 103.883308C 79.406479 103.09716 78.783585 103.006485 75.316895 102.501328L 75.249168 102.491508L 72.021461 102.021172L 72.021461 117.116753L 72.021461 131.15097ZM 62.670933 114.12825L 72.021484 117.116714L 72.021484 102.021027L 72.090416 100.276268L 72.569237 88.161934L 62.670933 84.998451L 62.670933 89.550575L 62.670933 114.12825ZM 99.290367 121.186867L 111.045799 121.179718L 111.045799 108.144363L 111.045799 92.049919L 99.290367 92.057068L 99.290367 108.041321L 99.290367 121.186867ZM 142.679199 115.666542C 144.069656 115.219757 145.459045 114.773346 147.624466 114.077133L 147.624466 93.033897L 147.624466 84.947342C 145.515244 85.625435 144.142365 86.066666 142.787582 86.501892L 142.752609 86.513184L 142.679199 86.536743C 141.292374 86.982414 139.904465 87.428345 137.744492 88.122742L 138.335205 101.115608L 138.374649 101.981354L 138.374649 117.049965L 142.679199 115.666542ZM 56.374817 32.57151L 47.941982 19.361254L 47.941982 36.945469L 48.690624 37.006771C 51.354908 35.469555 52.508572 34.803455 54.542683 33.629162L 56.374817 32.57151ZM 173.850449 52.750443C 174.062836 53.475658 174.286148 54.242397 174.612656 55.363277L 194.282547 59.580036L 194.282547 40.694962L 172.921921 49.561707C 173.334579 50.980946 173.58342 51.832508 173.850449 52.750443ZM 153.60643 32.512875L 161.318542 36.939171L 161.960602 36.885757L 161.960602 19.292692L 153.60643 32.512875ZM 37.654682 120.167473L 62.671341 114.128143L 62.671341 89.550507L 62.671341 84.99823L 37.654682 91.037682L 37.654682 120.167473ZM 42.599823 72.548157L 42.595341 72.543304C 41.652737 71.517578 40.907501 70.706657 39.510132 69.18718L 15.750163 67.753159L 11.914253 67.521698L 11.914253 89.669182L 11.914253 96.651489L 28.923988 97.67807L 28.923988 86.026031L 28.977642 85.986099L 36.754932 80.205528L 44.409027 74.516602L 42.599823 72.548157ZM 84.797859 133.012878L 99.290771 121.18679L 99.290771 108.0411L 99.290771 92.056992L 84.797859 103.883087L 84.797859 105.574059L 84.797859 133.012878ZM 111.046249 121.179604L 125.610291 132.988358L 125.610291 103.858566L 111.046249 92.049805L 111.046249 108.144295L 111.046249 121.179604ZM 147.625137 114.077065L 172.676743 120.086174L 172.676743 90.956375L 147.625137 84.947266L 147.625137 93.033791L 147.625137 114.077065ZM 168.559738 71.445465C 167.765961 72.314987 167.044998 73.104546 165.823959 74.443298L 173.290909 79.959991L 181.378067 85.934616L 181.378067 85.943504L 181.378067 97.579506L 198.276993 96.539078L 198.276993 89.566284L 198.276993 67.409279L 192.395187 67.771461L 170.692261 69.107697L 168.559738 71.445465ZM 36.335709 52.544834C 36.568508 51.729202 36.801289 50.91357 37.163712 49.643047L 21.261522 43.077034L 15.750163 40.801529L 15.750163 59.711494L 21.261522 58.52179L 35.507687 55.446766C 35.867573 54.184837 36.099632 53.371651 36.330967 52.561573L 36.335709 52.544834ZM 105.93663 35.540192C 81.805122 35.540192 62.241932 45.3055 62.241932 57.351128C 62.241932 62.948902 66.466949 68.05426 73.411865 71.916023C 81.41127 67.467911 93.019493 64.669991 105.93663 64.669991C 118.853745 64.669991 130.46196 67.467911 138.461365 71.916023C 145.406418 68.05426 149.631439 62.948902 149.631439 57.351128C 149.631439 45.3055 130.068222 35.540192 105.93663 35.540192ZM 106.598648 10.00291C 104.192299 10.004243 102.983894 10.005318 98.268867 10.008133L 91.045052 23.392775C 88.574356 23.756178 86.989212 23.989458 85.403328 24.22274C 83.820496 24.45554 82.236923 24.68856 79.771088 25.051224L 59.127163 15.766108C 57.227894 16.376608 56.004688 16.769867 55.023266 17.085451C 52.949223 17.752144 51.954685 18.071987 47.941559 19.361588L 56.37439 32.571693L 54.542259 33.629349C 52.508144 34.803753 51.354485 35.469738 48.690201 37.007065L 47.941559 36.945652L 21.261097 34.760414C 19.804241 36.357006 19.154774 37.069111 18.505047 37.781322C 17.855579 38.493427 17.206112 39.205528 15.749737 40.801712L 21.261097 43.077366L 37.163303 49.643196C 36.80088 50.913757 36.568081 51.7295 36.335281 52.545128C 36.33371 52.55072 36.332134 52.556202 36.330429 52.56176C 36.099205 53.371944 35.867146 54.18502 35.507263 55.447063L 21.261097 58.522087L 15.749737 59.711678L 10.000003 60.952721C 10.505642 62.687065 10.731033 63.461544 10.956183 64.235062L 10.956924 64.237358C 11.182316 65.011612 11.407707 65.785866 11.913828 67.521881L 15.749737 67.753456L 39.509575 69.18737C 40.906963 70.706841 41.652309 71.517876 42.594917 72.543488L 42.5994 72.54834C 43.102871 73.0961 43.662884 73.705521 44.4086 74.516785L 36.754505 80.205826L 28.977217 85.98629L 28.923563 86.026215C 32.640533 88.160339 33.040089 88.389732 35.467091 89.7826C 36.052959 90.118813 36.756931 90.522888 37.654255 91.037865L 62.670933 84.998528L 72.569107 88.162041L 72.090416 100.276382L 72.021461 102.021133C 73.348457 102.214485 74.386566 102.365837 75.249168 102.491478C 75.271873 102.494843 75.294449 102.498138 75.316895 102.501404C 78.783585 103.006447 79.406479 103.097237 84.79744 103.883377L 99.290344 92.057182L 111.045799 92.049995L 125.609848 103.858864C 128.982605 103.362923 130.487259 103.141792 131.991959 102.920517C 133.496979 102.699127 135.000824 102.47773 138.375031 101.98143L 138.334946 101.115685L 137.743851 88.122818C 139.904358 87.428459 141.292847 86.982529 142.67894 86.536819C 142.703232 86.528931 142.728729 86.521042 142.752991 86.513298C 142.763916 86.509521 142.776062 86.505745 142.786987 86.501999C 144.1427 86.066734 145.515457 85.625549 147.624954 84.947449L 172.676559 90.956673L 181.377884 85.934952L 173.290726 79.960289L 165.823776 74.443596C 167.044815 73.104729 167.765778 72.31517 168.558319 71.445648C 169.150635 70.797623 169.781815 70.105194 170.692108 69.10788L 192.395004 67.77179L 198.27681 67.409607L 200.150833 60.838524L 194.282364 59.580223L 174.611252 55.363464C 174.285995 54.242546 174.061462 53.475845 173.850266 52.750629C 173.583237 51.832691 173.334427 50.981133 172.921722 49.56189L 194.282364 40.695148C 192.816193 39.100296 192.161987 38.389046 191.507782 37.677647C 190.853561 36.966396 190.200577 36.255035 188.734375 34.660183L 161.960464 36.886055L 161.318359 36.939468L 153.606247 32.513058L 161.960464 19.292877L 159.365479 18.464024C 156.058029 17.407074 155.630768 17.270765 150.752762 15.711251L 130.1642 25.021481C 125.28289 24.309525 123.854164 24.101358 119.058319 23.402479L 118.879524 23.376402L 111.57415 9.999984L 106.598648 10.00291ZM 105.936203 79.162247C 93.019081 79.162247 81.410843 76.364212 73.411446 71.916214C 66.466415 68.054558 62.241505 62.9492 62.241505 57.351311C 62.241505 45.305645 81.804718 35.540375 105.936203 35.540375C 130.06781 35.540375 149.631241 45.305645 149.631241 57.351311C 149.631241 62.9492 145.406235 68.054558 138.461182 71.916214C 130.461548 76.364212 118.853333 79.162247 105.936203 79.162247Z"></path></g></g></g><g id="g-root-sy_0_line_1cyng3zy6zqpw-fill" data-item-order="-253821" transform="translate(245.75595092773438, 404.458984375)"></g><g id="g-root-sy_0_line_1_1430fv3y6zril-fill" data-item-order="-253817" transform="translate(537.0538940429688, 397.1767578125)"></g><g id="g-root-sy_0_line_2_1430fv3y6zrim-fill" data-item-order="-253813" transform="translate(100.10693359375, 135.00830078125)"></g><g id="g-root-sy_0_line_3_zn6xqny6zsav-fill" data-item-order="-253809" transform="translate(391.4049072265625, 135.00830078125)"></g><g id="g-root-sy_0_line_4_zn6xqny6zsaw-fill" data-item-order="-253805" transform="translate(682.7028198242188, 135.00830078125)"></g><g id="g-root-re_1d1rgwfz0gbuy-fill" data-item-order="-27360" transform="translate(178.99996948242188, 7.99951171875)"><g id="re_1d1rgwfz0gbuy-fill" stroke="none" fill="#a3a3a3"><g><path d="M 34 10L 442 10C 442 10 466 10 466 34L 466 46C 466 46 466 70 442 70L 34 70C 34 70 10 70 10 46L 10 34C 10 34 10 10 34 10"></path></g></g></g><g id="g-root-tx__v7dfm7y6zt35-fill" data-item-order="0" transform="translate(610.7028198242188, 72.443359375)"><g id="tx__v7dfm7y6zt35-fill" stroke="none" fill="#443e5c"><g><text style="font: bold 20px &quot;Roboto Slab&quot;, serif; white-space: pre;" font-weight="bold" font-size="20px" font-family="'Roboto Slab', serif"><tspan x="11.93" y="34.96" dominant-baseline="ideographic">리더십의 개방성</tspan></text></g></g></g><g id="g-root-tx__qtfcr3y6zs3x-fill" data-item-order="0" transform="translate(28.10693359375, 96.443359375)"><g id="tx__qtfcr3y6zs3x-fill" stroke="none" fill="#3a4455"><g><text style="font: bold 20px &quot;Roboto Slab&quot;, serif; white-space: pre;" font-weight="bold" font-size="20px" font-family="'Roboto Slab', serif"><tspan x="11.93" y="34.96" dominant-baseline="ideographic">워크플로우 개선</tspan></text></g></g></g><g id="g-root-tx__1uqjxovy6ztor-fill" data-item-order="0" transform="translate(325.4049072265625, 96.443359375)"><g id="tx__1uqjxovy6ztor-fill" stroke="none" fill="#424736"><g><text style="font: bold 20px &quot;Roboto Slab&quot;, serif; white-space: pre;" font-weight="bold" font-size="20px" font-family="'Roboto Slab', serif"><tspan x="11.84" y="36.24" dominant-baseline="ideographic">협업 도구 활용</tspan></text></g></g></g><g id="g-root-tx__1czwea7y6zsw4-fill" data-item-order="0" transform="translate(149.75592041015625, 484.56591796875)"><g id="tx__1czwea7y6zsw4-fill" stroke="none" fill="#374840"><g><text style="font: bold 20px &quot;Roboto Slab&quot;, serif; white-space: pre;" font-weight="bold" font-size="20px" font-family="'Roboto Slab', serif"><tspan x="14.16" y="34.96" dominant-baseline="ideographic">데이터 기반 의사결정</tspan></text></g></g></g><g id="g-root-tx__90we33y6zsay-fill" data-item-order="0" transform="translate(459.05389404296875, 484.56591796875)"><g id="tx__90we33y6zsay-fill" stroke="none" fill="#32444a"><g><text style="font: bold 20px &quot;Roboto Slab&quot;, serif; white-space: pre;" font-weight="bold" font-size="20px" font-family="'Roboto Slab', serif"><tspan x="15.48" y="34.96" dominant-baseline="ideographic">디지털 역량 평가</tspan></text></g></g></g><g id="g-root-tx__dhyudry6ztou-fill" data-item-order="1000000000" transform="translate(190.99996948242188, 19.99951171875)"><g id="tx__dhyudry6ztou-fill" stroke="none" fill="#ffffff"><g><text style="font: bold 25px Roboto, sans-serif; white-space: pre;" font-weight="bold" font-size="25px" font-family="Roboto, sans-serif"><tspan x="14.98" y="42.44" dominant-baseline="ideographic">성공적인 디지털 전환을 위한 조직의 노력</tspan></text></g></g></g><g id="g-root-sy_3_cu_1q6d3yny6zr4f-stroke" data-item-order="-253844" transform="translate(280.1863708496094, 184.8154296875)"><g id="sy_3_cu_1q6d3yny6zr4f-stroke" fill="none" stroke-linecap="round" stroke-linejoin="round" stroke-miterlimit="4" stroke="#ffffff" stroke-width="2"><g><path d="M 48.677269 90.489571C 47.056786 89.123741 46.168072 88.374855 45.278286 87.625122C 44.390797 86.87735 43.502457 86.128838 41.886494 84.766785L 41.716812 95.304344L 48.677269 90.489571ZM 34.30061 73.543671L 33.528168 70.239632L 32.755875 66.935585L 32.755875 73.992126L 34.30061 73.543671ZM 209.843048 65.916267L 209.223694 69.22831C 209.061646 70.095062 208.899628 70.961807 208.604309 72.540245L 209.843048 72.881096L 209.843048 65.916267ZM 176.01001 143.480042L 179.354248 142.236084L 179.354248 98.541389L 176.01001 99.785355L 175.741913 99.884995C 173.542007 100.703323 172.224731 101.193298 168.672852 102.513977L 174.085541 114.081413L 174.085541 144.195786L 176.01001 143.480042ZM 140.630676 151.880371L 140.645599 151.878677C 142.340607 151.688354 144.039734 151.497681 147.126862 151.151382L 147.126862 107.456581C 145.24324 107.667892 143.87645 107.82132 142.712006 107.952034L 140.630676 108.185684C 138.930695 108.376587 137.230728 108.567383 134.134369 108.914749L 134.134369 152.609451C 137.230728 152.262085 138.930695 152.071289 140.630676 151.880371ZM 103.902252 152.090698L 110.430222 152.744904L 110.430222 109.050209L 103.902252 108.395996L 97.374275 107.741936L 97.374275 151.43663L 103.902252 152.090698ZM 64.744049 142.895142L 70.174805 144.819427L 70.727524 145.015182L 70.727524 114.67543L 75.605568 103.048988L 70.174805 101.124733L 64.744049 99.200447L 64.744049 142.895142ZM 198.274277 86.750374C 199.129028 85.990822 199.983002 85.231865 201.539368 83.848068L 201.539368 93.947998L 195.015167 89.647346C 196.567902 88.26696 197.421494 87.508255 198.274277 86.750374ZM 179.354248 142.236084C 177.956848 142.755829 176.90538 143.146866 176.01001 143.480042C 175.302277 143.743179 174.692139 143.970169 174.085541 144.195786M 140.630676 151.880371C 140.635635 151.879868 140.64064 151.879272 140.645599 151.878677M 110.430222 152.744904C 107.318825 152.43309 105.610588 152.261963 103.902252 152.090698C 102.194016 151.919571 100.485672 151.748291 97.374275 151.43663M 64.744049 142.895142C 67.332207 143.812271 68.753487 144.315826 70.174805 144.819427C 70.358192 144.884369 70.54158 144.949402 70.727524 145.015182M 209.843048 65.916267C 209.54776 67.494743 209.385712 68.361458 209.223694 69.22831M 179.354248 98.541389C 177.956848 99.061134 176.90538 99.452171 176.01001 99.785355C 175.919113 99.819099 175.829773 99.852356 175.741913 99.884995M 140.630676 108.185684C 141.296402 108.110901 141.96228 108.036148 142.712006 107.952034M 110.430222 109.050209C 107.318825 108.738403 105.610588 108.567276 103.902252 108.395996C 102.194016 108.224869 100.485672 108.053596 97.374275 107.741936M 75.605568 103.048988C 73.017365 102.131905 71.596085 101.628304 70.174805 101.124733C 68.753487 100.621132 67.332207 100.117569 64.744049 99.200447M 34.30061 73.543671C 33.932613 71.968933 33.73037 71.104301 33.528168 70.239632C 33.326073 69.374809 33.123871 68.510139 32.755875 66.935585M 229.430939 120.221275L 229.430939 78.270592C 228.253235 80.155762 227.782074 80.909393 227.311264 81.662498C 226.840073 82.416382 226.369278 83.169601 225.190475 85.056511L 225.190475 118.552383L 229.430939 120.221275ZM 161.155045 160.742264L 174.085419 157.776001L 174.085419 114.081299L 161.155045 117.047577L 161.155045 160.742264ZM 115.435493 164.35849L 129.662216 164.276672L 129.662216 120.581978L 115.435493 120.663795L 115.435493 164.35849ZM 70.727562 158.37001L 83.791168 161.186386L 83.791168 117.491692L 70.727562 114.675316L 70.727562 158.37001ZM 44.398834 124.277573L 44.398834 105.346977L 39.577614 102.732956L 34.75639 100.119011L 34.75639 125.081573L 44.398834 124.277573ZM 206.453964 100.773849L 209.376526 99.114182L 209.376526 137.498642L 199.977921 137.367416L 199.977921 104.451859C 203.898056 102.225136 204.284988 102.005447 206.44278 100.780151L 206.453964 100.773849ZM 15.67078 82.361748C 16.33736 83.348167 16.74688 83.954041 18.297318 86.247551L 18.297318 105.421501L 13.744936 107.498215L 13.744936 79.51226L 15.67078 82.361748ZM 206.453964 100.773849C 206.45018 100.775925 206.446442 100.777962 206.44278 100.780151M 44.398834 105.346977C 41.718998 103.894142 40.648232 103.313606 39.577614 102.732956C 38.506847 102.15242 37.436195 101.571892 34.75639 100.119011M 15.67078 82.361748C 15.24926 81.738136 14.725137 80.962433 13.744936 79.51226M 232.43428 62.213261L 209.843277 65.915787L 209.843277 72.880577L 229.431122 78.270073L 229.431122 106.400108L 232.43428 105.907951L 232.43428 62.213261ZM 220.456589 39.873013L 202.832932 47.846195C 203.848358 49.348202 204.405701 50.172947 204.963043 50.997688C 205.520279 51.82254 206.077637 52.647266 207.093063 54.149292L 220.456589 54.714901L 220.456589 39.873013ZM 191.329239 21.897985L 181.720016 32.763153L 186.231613 35.209583L 190.743103 37.655865L 191.329239 21.897985ZM 50.543217 38.461792L 59.339214 33.466885L 49.231762 22.715191L 49.231762 38.250847L 50.543217 38.461792ZM 37.93998 50.36824L 37.948685 50.354404L 38.927479 48.788189L 20.940414 41.020119L 20.940414 55.895267L 34.959633 55.139088C 36.457512 52.740238 36.88533 52.055824 37.93998 50.36824ZM 32.756058 66.934952L 9.999998 63.493637L 9.999998 107.188332L 13.314488 107.689491L 13.745232 107.488617L 13.745232 79.511742L 32.756058 73.991638L 32.756058 66.934952ZM 41.886677 84.766266L 18.297615 86.247032L 18.297615 105.436279L 21.263517 104.074486L 32.463329 107.693008L 32.463329 125.286446L 34.756687 125.073425L 34.756687 100.11853L 41.716995 95.303757L 41.886677 84.766266ZM 179.354462 142.235596L 186.751587 144.35553L 186.751587 142.874512L 190.435043 137.237762L 199.978226 137.37056L 199.978226 104.45134L 179.354462 98.540901L 179.354462 142.235596ZM 147.127045 151.150787L 161.15538 160.741745L 161.15538 117.047058L 147.127045 107.4561L 147.127045 151.150787ZM 129.662399 164.276184L 134.134552 152.608963L 134.134552 108.914268L 129.662399 120.58149L 129.662399 164.276184ZM 110.430443 152.744415L 115.435791 164.357971L 115.435791 120.663277L 110.430443 109.049728L 110.430443 152.744415ZM 83.791359 161.185867L 97.374458 151.436111L 97.374458 107.741417L 83.791359 117.491173L 83.791359 161.185867ZM 201.539581 83.847588L 225.190659 85.055992L 225.190659 118.585976L 223.305588 117.865387L 213.690475 121.337044L 213.690475 128.163116L 209.376831 127.942688L 209.376831 99.113663L 201.539581 93.947517L 201.539581 83.847588ZM 121.218552 43.557446C 97.087067 43.557446 77.523849 53.322735 77.523849 65.368362C 77.523849 74.064354 87.719276 81.571709 102.468674 85.074814C 108.150528 83.725243 114.508118 82.970062 121.219032 82.970062C 127.929794 82.970062 134.287125 83.725243 139.968903 85.074699C 154.718048 81.571602 164.913239 74.06424 164.913239 65.368362C 164.913239 53.322735 145.350143 43.557446 121.218552 43.557446ZM 44.399132 105.346497L 64.744232 99.199966L 64.744232 129.061539L 59.176792 123.059944L 44.399132 124.288017L 44.399132 105.346497ZM 64.744232 142.894669L 64.744232 129.061539M 37.948685 50.354404C 37.945797 50.359016 37.942871 50.363628 37.93998 50.36824M 181.720016 32.763153C 183.870544 33.929207 185.051025 34.56945 186.231613 35.209583C 187.412094 35.849697 188.592606 36.48983 190.743103 37.655865M 10.661837 59.955421C 10.762846 59.415073 11.32212 56.414948 11.32212 56.414948L 34.959633 55.139904C 36.457512 52.741051 36.88533 52.056637 37.93998 50.369038C 37.942871 50.364426 37.945797 50.359814 37.948685 50.355202L 38.927479 48.789112L 20.940414 41.020935L 23.189621 39.021046C 24.725245 37.655716 25.048201 37.368542 27.911316 34.823677L 50.543217 38.462605L 59.339214 33.467812L 49.231762 22.716005C 51.268913 21.958639 52.520512 21.493282 53.491158 21.132435C 55.543827 20.369234 56.338715 20.073689 60.646149 18.4718L 78.359001 26.395826C 81.242607 25.734451 82.825935 25.371307 84.409264 25.008032C 85.992599 24.644888 87.576042 24.281614 90.459526 23.620237L 89.977928 11.743421C 93.837021 11.310603 95.378571 11.137642 96.920273 10.964682C 98.461601 10.791611 100.003075 10.618521 103.860802 10.185332L 113.591141 21.024054C 116.799179 21.005718 118.54467 20.995644 120.305908 20.985569C 122.029442 20.975624 123.767899 20.965677 126.906113 20.947714L 136.135178 10C 142.018646 10.588906 142.542038 10.641467 145.837112 10.97172C 146.885544 11.07684 148.214554 11.209982 150.086288 11.397629L 150.152924 23.276762C 153.066742 23.904745 154.666336 24.249685 156.266037 24.594513C 157.865631 24.939341 159.465225 25.284281 162.379044 25.912264L 179.722458 17.786997C 182.94809 18.929621 184.236954 19.385977 185.525696 19.842592C 186.81459 20.29921 188.103348 20.755806 191.329239 21.898802L 181.720016 32.76408C 183.870544 33.930134 185.051025 34.570248 186.231613 35.210381C 187.412094 35.850513 188.592606 36.490757 190.743103 37.656792L 213.200851 33.758377C 215.218445 35.458828 216.02388 36.137688 216.830063 36.817249C 217.635361 37.495979 218.441284 38.175301 220.456589 39.873829L 202.832932 47.847008C 203.848358 49.349018 204.405701 50.173759 204.963043 50.998615C 205.520279 51.823357 206.077637 52.648193 207.093063 54.150219L 230.783585 55.152756C 231.242508 57.115269 231.425674 57.899342 231.608948 58.683414C 231.792221 59.467598 231.975494 60.251709 232.43428 62.214184L 209.843277 65.916603C 209.547958 67.495041 209.385941 68.361786 209.223892 69.228645C 209.061874 70.09539 208.899826 70.962105 208.604538 72.540581L 229.431122 78.271034C 228.253418 80.156212 227.782379 80.909798 227.311554 81.662941C 226.840393 82.416679 226.369461 83.170044 225.190659 85.056923L 201.539581 83.848511C 199.983185 85.232193 199.129211 85.991158 198.274506 86.750816C 197.421722 87.508705 196.568085 88.267288 195.01535 89.647675L 209.376831 99.114479L 206.454147 100.774147C 204.286499 102.005005 203.905167 102.221649 199.978226 104.452156L 179.354462 98.541718C 177.957077 99.061432 176.905609 99.452621 176.010223 99.785683C 175.919327 99.819427 175.829987 99.852692 175.742096 99.885323C 173.542191 100.703621 172.224915 101.193634 168.673035 102.514305L 174.085724 114.081749L 161.15538 117.047867L 147.127045 107.457024C 145.243469 107.66819 143.876678 107.821609 142.712204 107.952332C 141.962463 108.03656 141.296616 108.111229 140.630859 108.185982C 138.930923 108.376923 137.230957 108.567833 134.134552 108.915085L 129.662399 120.58242L 115.435791 120.664093L 110.430443 109.050537C 107.319008 108.738846 105.610779 108.567574 103.902435 108.396446C 102.194237 108.225204 100.485893 108.054039 97.374458 107.742233L 83.791359 117.492096L 70.727745 114.675728L 75.605751 103.049324C 73.017586 102.132202 71.596306 101.628632 70.174988 101.125031C 68.753708 100.621468 67.332436 100.117867 64.744232 99.200783L 44.399132 105.347275C 41.71933 103.894547 40.648563 103.313904 39.577911 102.733368C 38.507145 102.152832 37.436489 101.572182 34.756687 100.119461L 48.677452 90.489868C 47.056969 89.124039 46.168297 88.375191 45.278473 87.625458C 44.390984 86.877647 43.502678 86.129128 41.886677 84.767082L 18.297615 86.247849C 16.747175 83.954483 16.337656 83.348465 15.670965 82.362045C 15.249556 81.738426 14.725323 80.962837 13.745232 79.512672L 34.300793 73.543968C 33.932796 71.969269 33.730595 71.104599 33.528389 70.239922C 33.326298 69.375145 33.124092 68.510468 32.756058 66.935883L 9.999998 63.49445C 10.367994 61.527454 10.51486 60.741421 10.661837 59.955421ZM 164.910431 65.331917C 164.910431 53.286289 145.347366 43.521 121.215736 43.521C 97.084251 43.521 77.521042 53.286289 77.521042 65.331917C 77.521042 77.377586 97.084251 87.142853 121.215736 87.142853C 145.347366 87.142853 164.910431 77.377586 164.910431 65.331917ZM 37.948685 50.355202L 37.93998 50.369038M 181.720016 32.76408L 186.231613 35.210381L 190.743103 37.656792M 209.843277 65.916603L 209.223892 69.228645M 179.354462 98.541718L 176.010223 99.785683L 175.742096 99.885323M 140.630859 108.185982L 142.712204 107.952332M 110.430443 109.050537L 103.902435 108.396446L 97.374458 107.742233M 75.605751 103.049324L 70.174988 101.125031L 64.744232 99.200783M 44.399132 105.347275L 39.577911 102.733368L 34.756687 100.119461M 15.670965 82.362045L 13.745232 79.512672M 34.300793 73.543968L 33.528389 70.239922L 32.756058 66.935883"></path></g></g></g><g id="g-root-sy_5_cu_v4926ny6zrwo-stroke" data-item-order="-253840" transform="translate(587.6280517578125, 222.31103515625)"><g id="sy_5_cu_v4926ny6zrwo-stroke" fill="none" stroke-linecap="round" stroke-linejoin="round" stroke-miterlimit="4" stroke="#ffffff" stroke-width="2"><g><path d="M 21.261187 99.940994L 21.261187 79.12252C 19.816238 77.538818 19.165586 76.825386 18.521082 76.118874L 18.505304 76.101501L 18.487228 76.081726C 17.843687 75.376328 17.192738 74.662628 15.749864 73.081116L 15.749864 100.01297L 21.261187 99.940994ZM 56.374504 81.311279L 54.542408 80.253479C 52.508293 79.079185 51.354706 78.4132 48.69046 76.87587L 48.69046 93.348534L 56.374504 81.311279ZM 55.023491 125.927544L 59.127274 127.246773L 59.127274 98.116714L 55.023491 96.797523L 54.959778 96.777C 52.928703 96.124016 51.913647 95.79776 47.941723 94.521385L 47.941723 123.651405C 51.95491 124.941002 52.949448 125.260742 55.023491 125.927544ZM 85.403481 118.790253L 91.045181 119.62011L 91.045181 90.490051L 85.403481 89.660233L 79.771332 88.831711L 79.771332 117.961769L 85.403481 118.790253ZM 119.058434 119.610512C 123.854431 118.911636 125.283157 118.703468 130.164276 117.991364L 130.164276 88.861343C 125.283157 89.573448 123.854431 89.781616 119.058434 90.480461L 118.879677 90.506569L 118.879677 119.636589L 119.058434 119.610512ZM 37.163395 64.239738C 36.80114 62.96907 36.56823 62.153439 36.335392 61.337807C 36.102631 60.522179 35.86972 59.706436 35.507393 58.435875L 35.507393 64.923431L 37.163395 64.239738ZM 111.574409 133.012894L 111.574409 103.88295L 98.269035 103.874733L 98.269035 133.004745L 111.574409 133.012894ZM 159.365936 124.549232L 161.960464 123.72023L 161.960464 94.59021L 159.365936 95.419174C 156.057999 96.475975 155.631516 96.612282 150.752762 98.171837L 150.752762 127.301849C 155.631516 125.74234 156.057999 125.606033 159.365936 124.549232ZM 161.318268 76.943726L 153.606735 81.369987L 161.318268 93.573814L 161.318268 76.943726ZM 191.50853 105.335457C 192.162445 104.624092 192.816437 103.912842 194.28241 102.317955L 194.28241 73.187935C 192.816437 74.782791 192.162445 75.494148 191.50853 76.205399C 190.854538 76.916649 190.200562 77.628052 188.73465 79.2229L 188.73465 108.352921C 190.200562 106.758072 190.854538 106.046707 191.50853 105.335457ZM 174.612228 58.519623C 174.285904 59.640503 174.062332 60.407242 173.850906 61.132454C 173.583252 62.050392 173.335083 62.901951 172.921997 64.321198L 174.612228 65.02285L 174.612228 58.519623ZM 91.045181 119.62011C 88.574509 119.256706 86.989479 119.023537 85.403481 118.790253C 83.82074 118.557343 82.237038 118.324432 79.771332 117.961769M 59.127274 127.246773C 57.228138 126.636238 56.004913 126.243011 55.023491 125.927544M 91.045181 90.490051C 88.574509 90.126648 86.989479 89.893517 85.403481 89.660233C 83.82074 89.427322 82.237038 89.194374 79.771332 88.831711M 59.127274 98.116714C 57.228138 97.506218 56.004913 97.113068 55.023491 96.797523C 55.002155 96.790596 54.980892 96.783783 54.959778 96.777M 18.521082 76.118874C 18.515823 76.113167 18.510489 76.107353 18.505304 76.101501C 18.499229 76.094948 18.493303 76.088425 18.487228 76.081726M 39.509613 44.696495C 40.909298 43.174576 41.654625 42.36343 42.59938 41.335518L 44.408585 39.367077L 28.923599 27.857647L 28.923599 45.335407L 39.509613 44.696495ZM 35.507244 58.436913L 10 52.931107L 10 82.061165L 15.749641 83.3022L 15.749641 73.082153L 35.507244 64.924469L 35.507244 58.436913ZM 48.690163 76.687187L 21.260965 78.933838L 21.260965 99.944923L 35.851719 99.745605L 39.549763 105.378944L 39.549763 106.565865L 47.941578 105.878548L 47.941578 94.332703L 48.690163 93.159851L 48.690163 76.687187ZM 59.127201 127.247772L 79.771103 117.962662L 79.771103 88.832748L 59.127201 98.117752L 59.127201 127.247772ZM 91.045036 119.621109L 98.26889 133.005783L 98.26889 103.875732L 91.045036 90.491089L 91.045036 119.621109ZM 111.574188 133.013901L 118.879532 119.63752L 118.879532 90.507462L 111.574188 103.883881L 111.574188 133.013901ZM 105.936188 34.721615C 81.804703 34.721615 62.241489 44.486885 62.241489 56.532551C 62.241489 62.130436 66.466545 67.235909 73.411705 71.097557C 81.41111 66.649666 93.019218 63.851631 105.936188 63.851631C 118.85331 63.851631 130.461411 66.649666 138.460815 71.097557C 145.405899 67.235909 149.63089 62.130436 149.63089 56.532551C 149.63089 44.486885 130.067825 34.721615 105.936188 34.721615ZM 130.163986 117.992882L 150.752182 127.303146L 150.752182 98.173096L 130.163986 88.862823L 130.163986 117.992882ZM 188.734131 79.224159L 161.317673 76.944984L 161.317673 93.575073L 161.959946 94.591469L 161.959946 106.128311L 188.734131 108.354218L 188.734131 79.224159ZM 200.150955 53.045933L 174.611786 58.520882L 174.611786 65.024109L 194.28183 73.189194L 194.28183 83.434143L 200.150955 82.175987L 200.150955 53.045933ZM 181.377747 27.949545L 165.823639 39.440865C 167.044785 40.779617 167.765152 41.569172 168.558716 42.438694L 170.69165 44.776466L 181.377747 45.434452L 181.377747 27.949545ZM 98.264145 133.006149L 98.26889 133.005783M 119.058365 119.611511L 118.879532 119.63752M 98.264145 103.876099L 98.26889 103.875732M 42.59938 41.335518C 43.102833 40.787766 43.662884 40.178448 44.408585 39.367077M 119.058365 90.481499L 118.879532 90.507462M 168.558716 42.438694C 169.149948 43.08672 169.781784 43.779152 170.69165 44.776466M 106.598694 103.88047C 104.192322 103.879028 102.979324 103.878433 98.264145 103.875511L 98.26889 103.875137L 91.045036 90.490494C 88.574364 90.12709 86.989182 89.893921 85.403328 89.660645C 83.820518 89.427734 82.236961 89.194824 79.771103 88.832161L 59.127201 98.117271C 57.227913 97.506775 56.004692 97.11351 55.023266 96.797928C 55.00193 96.791153 54.980671 96.784225 54.959557 96.777412C 52.928482 96.12442 51.913425 95.798172 47.941578 94.521797L 56.374428 81.311684L 54.542259 80.253922C 52.508144 79.079628 51.354485 78.413643 48.690163 76.876312L 21.260965 79.122932C 19.816166 77.539261 19.165365 76.825829 18.520935 76.119431C 18.5156 76.113579 18.510416 76.107765 18.505081 76.101944C 18.499081 76.09539 18.493006 76.088837 18.48708 76.082169C 17.843538 75.376732 17.192663 74.66304 15.749641 73.081665L 37.163322 64.240189C 36.800842 62.969513 36.568081 62.153885 36.335247 61.338215C 36.102337 60.522583 35.869572 59.706955 35.507244 58.436279L 10 52.930664C 10.506121 51.194504 10.731549 50.420284 10.956903 49.646027C 11.182331 48.871769 11.407685 48.097401 11.913806 46.361389L 39.509613 44.696014C 40.909298 43.174095 41.654625 42.362946 42.59938 41.335037C 43.102833 40.78717 43.662884 40.177856 44.408585 39.366486L 28.923599 27.857054C 32.640533 25.722931 33.040127 25.49365 35.467091 24.100782C 36.052998 23.764566 36.756912 23.360491 37.654255 22.845518L 62.670937 28.884853L 72.569107 25.721338L 72.0215 11.862117C 73.348442 11.668765 74.386536 11.517548 75.249207 11.391795C 78.775681 10.878026 79.371666 10.79124 84.797424 10L 99.29039 21.826202L 111.045845 21.833387L 125.609856 10.024521C 128.982605 10.520326 130.487274 10.741606 131.991928 10.962867C 133.496735 11.184128 135.001465 11.40563 138.374512 11.901805L 137.744385 25.760416C 139.904434 26.454926 141.292267 26.900854 142.679214 27.346563C 144.069565 27.793344 145.459015 28.239756 147.624481 28.935932L 172.676712 22.92671L 181.377899 27.948433L 165.823944 39.439789C 167.044937 40.778652 167.765457 41.568096 168.558853 42.437733C 169.150024 43.085754 169.781937 43.778191 170.691727 44.775501L 198.276932 46.47377L 200.151184 53.044857L 174.611862 58.519806C 174.285385 59.64069 174.061951 60.407425 173.850525 61.132751C 173.58287 62.05069 173.334702 62.902138 172.921631 64.321381L 194.282043 73.188126C 192.816055 74.783081 192.16214 75.494339 191.508163 76.205589C 190.854172 76.916985 190.200119 77.628235 188.734268 79.223198L 161.317749 76.943916L 153.606293 81.370323L 161.960098 94.590393L 159.365494 95.419357C 156.057556 96.476311 155.631149 96.612579 150.752258 98.172127L 130.1642 88.861755C 125.28286 89.573853 123.85421 89.782021 119.058365 90.480904L 118.879532 90.506981L 111.574188 103.8834L 106.598694 103.88047ZM 105.936188 34.72113C 81.804703 34.72113 62.241489 44.486401 62.241489 56.53207C 62.241489 62.129955 66.466545 67.235313 73.411705 71.097076C 81.41111 75.544968 93.019218 78.343002 105.936188 78.343002C 118.85331 78.343002 130.461411 75.544968 138.460815 71.097076C 145.405899 67.235313 149.63089 62.129955 149.63089 56.53207C 149.63089 44.486401 130.067825 34.72113 105.936188 34.72113ZM 106.598694 103.88047L 98.26889 103.875137M 91.045036 90.490494L 85.403328 89.660645L 79.771103 88.832161M 59.127201 98.117271L 55.023266 96.797928L 54.959557 96.777412M 42.59938 41.335037L 44.408585 39.366486M 168.558853 42.437733L 170.691727 44.775501M 18.520935 76.119431L 18.505081 76.101944L 18.48708 76.082169"></path></g></g></g><g id="g-root-sy_1_cu_1q7m24vy6ztah-stroke" data-item-order="-253836" transform="translate(20, 250.19287109375)"><g id="sy_1_cu_1q7m24vy6ztah-stroke" fill="none" stroke-linecap="round" stroke-linejoin="round" stroke-miterlimit="4" stroke="#ffffff" stroke-width="2"><g><path d="M 84.162155 106.3564L 96.051727 106.3564L 96.051727 91.791504L 84.162155 91.791504L 84.162155 106.3564ZM 70.032387 92.891159C 72.249771 93.249084 73.832489 93.504585 76.830673 93.988853L 76.830673 79.423958C 73.74073 78.924873 72.154129 78.668777 69.826775 78.293114L 67.10569 77.853737L 67.10569 92.418633L 70.032387 92.891159ZM 46.545399 100.282104L 46.545399 85.717201L 36.925522 82.244217L 36.925522 96.809113L 46.545399 100.282104ZM 45.621616 70.097351L 43.441982 68.606995C 42.254086 67.794739 41.292442 67.137268 39.610683 65.986534L 39.610683 78.4935L 45.621616 70.097351ZM 11.335485 77.330505C 12.027067 78.388412 12.374932 78.92028 13.675089 80.907761L 13.675089 66.342857C 12.377118 64.358643 12.02828 63.825222 11.338754 62.770828L 10 60.723492L 10 75.288391L 11.335485 77.330505ZM 140.603317 65.986534L 138.404266 67.490227L 138.403061 67.491081C 137.22464 68.296745 136.264328 68.9534 134.592392 70.097351L 140.794968 78.761375L 140.603317 65.986534ZM 106.084877 93.55278C 108.422905 93.175301 110.009628 92.91909 113.108192 92.418633L 113.108192 77.853737C 110.009628 78.354187 108.422905 78.610397 106.084877 78.987877L 103.383202 79.423958L 103.383202 93.988853L 106.084877 93.55278ZM 133.668503 100.282104L 140.682083 97.750015L 140.682083 83.964706L 143.288361 83.400543L 143.288361 82.244217C 140.788055 83.146744 139.633179 83.56382 138.478424 83.980705C 137.323669 84.397636 136.168808 84.814674 133.668503 85.717201L 133.668503 100.282104ZM 76.830673 93.988487L 84.162155 106.356033L 84.162155 91.79113L 76.830673 79.423584L 76.830673 93.988487ZM 46.545399 100.281731L 67.10569 92.418266L 67.10569 77.853363L 46.545399 85.716835L 46.545399 100.281731ZM 39.610683 65.98616L 13.675089 66.342491L 13.675089 80.907387L 38.122761 80.571541L 39.610683 78.493126L 39.610683 65.98616ZM 31.402752 53.436672L 31.402752 48.354721L 10 41.068272L 10 55.633171L 17.47543 58.178146L 31.402752 53.436672ZM 39.610683 35.805119L 41.794811 34.31176C 42.980515 33.500942 43.941917 32.843586 45.621616 31.694443L 36.925522 19.547546L 36.925522 34.112446L 38.122761 35.784748L 39.610683 35.805119ZM 148.811127 48.354721L 148.811127 53.436672L 162.738449 58.178146L 170.213882 55.633171L 170.213882 41.068272L 148.811127 48.354721ZM 143.288361 19.547546L 134.592392 31.694443L 136.795822 33.201065L 136.820343 33.217918C 137.98613 34.014992 138.944397 34.670162 140.603317 35.805119L 142.091125 35.784748L 143.288361 34.112446L 143.288361 19.547546ZM 113.108192 92.418266L 133.668503 100.281731L 133.668503 85.716835L 113.108192 77.853363L 113.108192 92.418266ZM 96.051727 106.356033L 103.383202 93.988487L 103.383202 79.423584L 96.051727 91.79113L 96.051727 106.356033ZM 140.603317 65.98616L 140.794968 78.761009L 142.091125 80.571541L 146.451614 80.631401L 146.451614 66.066505L 140.603317 65.98616ZM 39.610683 35.805119C 40.490646 35.203362 41.173496 34.736427 41.794811 34.31176M 134.592392 31.694443C 135.481461 32.302498 136.169281 32.772839 136.795822 33.201065C 136.803955 33.206768 136.812195 33.212326 136.820343 33.217918M 90.106941 29.084574C 114.238426 29.084574 133.801636 38.849846 133.801636 50.895512C 133.801636 53.449226 132.922409 55.90049 131.306671 58.177959C 127.353264 52.605446 118.991089 48.074028 108.313065 45.627617C 102.77063 44.357796 96.60434 43.649841 90.106941 43.649841C 84.772423 43.649841 79.66124 44.127071 74.935173 45.000595C 62.814629 47.240952 53.227894 52.087769 48.907219 58.177959C 47.291607 55.90049 46.412247 53.449226 46.412247 50.895512C 46.412247 38.849846 65.975456 29.084574 90.106941 29.084574ZM 148.811127 53.436523L 148.811127 48.354462L 170.213882 41.068012L 168.770386 38.860474C 168.146881 37.907089 167.769531 37.329926 166.53891 35.448643L 140.603317 35.805008C 138.945969 34.670979 137.987946 34.015953 136.823624 33.219955L 136.820343 33.217659L 134.592392 31.694183L 143.288361 19.547287L 133.668503 16.074299L 113.108192 23.937765L 110.340385 23.490984C 108.038391 23.11932 106.452522 22.863222 103.383202 22.367546L 96.051727 9.999999L 84.162155 9.999999L 76.830673 22.367546L 74.051323 22.816254C 71.755539 23.186808 70.169777 23.442905 67.10569 23.937765L 46.545399 16.074299L 36.925522 19.547287L 45.621616 31.694183C 43.941917 32.843475 42.980515 33.500721 41.794811 34.311501L 39.610683 35.805008L 13.675089 35.448643L 12.334392 37.498905C 11.646198 38.551334 11.296759 39.085606 10 41.068012L 31.402752 48.354462L 31.402752 53.436523L 10 60.722862L 11.338754 62.770199C 12.02828 63.824593 12.377118 64.358009 13.675089 66.342377L 39.610683 65.986015C 41.292442 67.136635 42.254086 67.79425 43.441982 68.606369L 45.621616 70.096725L 36.925522 82.243584L 46.545399 85.716721L 67.10569 77.853256L 69.826775 78.292519C 72.154129 78.668297 73.74073 78.924393 76.830673 79.423363L 84.162155 91.791023L 96.051727 91.791023L 103.383202 79.423363L 106.084877 78.987251C 108.422905 78.609772 110.009628 78.353668 113.108192 77.853256L 133.668503 85.716721L 143.288361 82.243584L 134.592392 70.096725C 136.264328 68.952766 137.22464 68.296265 138.403061 67.490562L 138.404266 67.489708L 140.603317 65.986015L 146.41774 66.065872L 146.41774 63.774696L 151.946106 57.769699L 164.522659 58.785385L 148.811127 53.436523ZM 133.801636 50.895435C 133.801636 38.84977 114.238426 29.084499 90.106941 29.084499C 65.975456 29.084499 46.412247 38.84977 46.412247 50.895435C 46.412247 53.449265 47.291607 55.900566 48.907219 58.177887C 54.912567 66.642776 71.091492 72.706375 90.106941 72.706375C 109.122383 72.706375 125.301315 66.642776 131.306671 58.177887C 132.922409 55.900566 133.801636 53.449265 133.801636 50.895435Z"></path></g></g></g><g id="g-root-sy_4_cu_hunz2ny6zshu-stroke" data-item-order="-253832" transform="translate(456.94696044921875, 286.60498046875)"><g id="sy_4_cu_hunz2ny6zshu-stroke" fill="none" stroke-linecap="round" stroke-linejoin="round" stroke-miterlimit="4" stroke="#ffffff" stroke-width="2"><g><path d="M 84.162178 106.356384L 96.05172 106.356384L 96.05172 91.791489L 84.162178 91.791489L 84.162178 106.356384ZM 69.826782 92.857994L 70.032394 92.891144C 72.249786 93.249069 73.832481 93.50457 76.830688 93.988838L 76.830688 79.423943C 73.740738 78.924858 72.154144 78.668762 69.826782 78.293098L 67.105682 77.853722L 67.105682 92.418617L 69.826782 92.857994ZM 41.735455 98.545593L 46.545414 100.282082L 46.545414 85.717186L 41.735455 83.98069L 36.925529 82.244202L 36.925529 96.809097L 41.735455 98.545593ZM 45.621628 70.097336L 43.441982 68.606979C 42.254093 67.794716 41.29245 67.137253 39.610703 65.986519L 39.610703 78.493484L 45.621628 70.097336ZM 11.335506 77.33049C 12.027088 78.388397 12.374935 78.920265 13.675092 80.907745L 13.675092 66.342842C 12.37712 64.358627 12.028311 63.825207 11.338765 62.770813L 11.335506 62.765591L 10.000012 60.723476L 10.000012 75.288376L 11.335506 77.33049ZM 167.94249 78.76136C 168.590256 77.770714 168.957169 77.209587 170.213882 75.288376L 170.213882 60.723476C 168.957169 62.644688 168.590256 63.205814 167.94249 64.196465L 166.538956 66.342842L 166.538956 80.907745L 167.94249 78.76136ZM 140.603302 65.986519L 138.404282 67.490211L 138.40303 67.491058C 137.224625 68.29673 136.264313 68.953384 134.592377 70.097336L 140.794952 78.76136L 140.603302 65.986519ZM 138.478439 98.545593L 143.288361 96.809097L 143.288361 82.244202L 138.478439 83.98069L 133.668518 85.717186L 133.668518 100.282082L 138.478439 98.545593ZM 106.0849 93.552757C 108.422928 93.175285 110.009628 92.919075 113.108215 92.418617L 113.108215 77.853722C 110.009628 78.354172 108.422928 78.610382 106.0849 78.987862L 103.383209 79.423943L 103.383209 93.988838L 106.0849 93.552757ZM 167.94249 78.76136C 167.605423 79.276741 167.19249 79.908241 166.538956 80.907745M 143.288361 96.809097C 140.788055 97.711624 139.633209 98.1287 138.478439 98.545593C 137.323669 98.962517 136.168823 99.379555 133.668518 100.282082M 67.105682 92.418617C 68.15741 92.588448 69.034935 92.730095 69.826782 92.857994C 69.895973 92.869179 69.964424 92.880219 70.032394 92.891144M 46.545414 100.282082C 44.045113 99.379555 42.890228 98.962517 41.735455 98.545593C 40.580719 98.1287 39.425835 97.711624 36.925529 96.809097M 11.335506 77.33049C 11.01081 76.833961 10.610291 76.221611 10.000012 75.288376M 167.94249 64.196465C 167.605423 64.711845 167.19249 65.343346 166.538956 66.342842M 140.603302 65.986519C 139.716187 66.593124 139.029449 67.062729 138.404282 67.490211M 143.288361 82.244202C 140.788055 83.146729 139.633209 83.563805 138.478439 83.98069C 137.323669 84.397621 136.168823 84.814659 133.668518 85.717186M 69.826782 78.293098C 69.034935 78.165192 68.15741 78.023552 67.105682 77.853722M 46.545414 85.717186C 44.045113 84.814659 42.890228 84.397621 41.735455 83.98069C 40.580719 83.563805 39.425835 83.146729 36.925529 82.244202M 45.621628 70.097336C 44.743732 69.496986 44.061966 69.030945 43.441982 68.606979M 11.335506 62.765591C 11.01081 62.269062 10.610291 61.656708 10.000012 60.723476M 76.830688 93.988281L 84.162178 106.355827L 84.162178 91.790932L 76.830688 79.423386L 76.830688 93.988281ZM 46.545414 100.281563L 67.105682 92.41806L 67.105682 77.853165L 46.545414 85.716667L 46.545414 100.281563ZM 39.610703 65.985962L 13.675092 66.342293L 13.675092 80.907188L 38.122749 80.571342L 39.610703 78.492928L 39.610703 65.985962ZM 31.402761 53.43647L 31.402761 48.354519L 10.000012 41.068069L 10.000012 55.632969L 17.475441 58.177944L 31.402761 53.43647ZM 39.610703 35.804916L 41.79483 34.311558C 42.980534 33.500744 43.941917 32.843384 45.621628 31.694242L 36.925529 19.547344L 36.925529 34.112244L 38.122749 35.784546L 39.610703 35.804916ZM 148.811096 48.354519L 148.811096 53.43647L 162.738449 58.177944L 170.213882 55.632969L 170.213882 41.068069L 148.811096 48.354519ZM 143.288361 19.547344L 134.592377 31.694242L 136.795837 33.200863L 136.820358 33.217716C 137.986099 34.01479 138.944412 34.66996 140.603302 35.804916L 142.091141 35.784546L 143.288361 34.112244L 143.288361 19.547344ZM 166.538956 66.342293L 140.603302 65.985962L 140.794952 78.760803L 142.091141 80.571342L 166.538956 80.907188L 166.538956 66.342293ZM 113.108215 92.41806L 133.668518 100.281563L 133.668518 85.716667L 113.108215 77.853165L 113.108215 92.41806ZM 96.05172 106.355827L 103.383209 93.988281L 103.383209 79.423386L 96.05172 91.790932L 96.05172 106.355827ZM 39.610703 35.804916C 40.490635 35.203159 41.173515 34.736225 41.79483 34.311558M 134.592377 31.694242C 135.481415 32.302299 136.169266 32.77264 136.795837 33.200863C 136.803909 33.206566 136.81221 33.212124 136.820358 33.217716M 90.106949 29.08441C 114.238426 29.08441 133.801636 38.849682 133.801636 50.895348C 133.801636 53.449062 132.922379 55.900326 131.306671 58.177795C 127.353264 52.605282 118.991089 48.073864 108.313065 45.627453C 102.77063 44.357632 96.604362 43.649677 90.106949 43.649677C 84.772415 43.649677 79.661247 44.126907 74.935181 45.000431C 62.814617 47.240788 53.227882 52.087605 48.907227 58.177795C 47.291595 55.900326 46.412254 53.449062 46.412254 50.895348C 46.412254 38.849682 65.975464 29.08441 90.106949 29.08441ZM 170.213882 41.067997L 148.811096 48.354446L 148.811096 53.436508L 170.213882 60.722847C 168.957169 62.644096 168.590256 63.205185 167.94249 64.195984C 167.605423 64.711212 167.19249 65.342712 166.538956 66.342361L 140.603302 65.986C 139.716187 66.592606 139.029449 67.062096 138.404282 67.489693L 138.40303 67.49054C 137.224625 68.296249 136.264313 68.952751 134.592377 70.09671L 143.288361 82.243568C 140.788055 83.146248 139.633209 83.563171 138.478439 83.980064C 137.323669 84.397102 136.168823 84.814026 133.668518 85.716705L 113.108215 77.853241C 110.009628 78.353653 108.422928 78.609756 106.0849 78.987236L 103.383209 79.423347L 96.05172 91.791008L 84.162178 91.791008L 76.830688 79.423347C 73.740738 78.924377 72.154144 78.668274 69.826782 78.292503C 69.034935 78.164673 68.15741 78.023033 67.105682 77.853241L 46.545414 85.716705C 44.045113 84.814026 42.890228 84.397102 41.735455 83.980064C 40.580719 83.563171 39.425835 83.146248 36.925529 82.243568L 45.621628 70.09671C 44.743732 69.496391 44.061966 69.030312 43.441982 68.606346C 42.254093 67.794235 41.29245 67.13662 39.610703 65.986L 13.675092 66.342361C 12.37712 64.357994 12.028311 63.824577 11.338765 62.770184L 11.335506 62.765106C 11.01081 62.268543 10.610291 61.656078 10.000012 60.722847L 31.402761 53.436508L 31.402761 48.354446L 10.000012 41.067997C 11.296762 39.08559 11.646201 38.551319 12.334413 37.49889C 12.660035 37.000881 13.061442 36.386971 13.675092 35.448627L 39.610703 35.804993C 40.490635 35.203197 41.173515 34.736263 41.79483 34.311485C 42.980534 33.500706 43.941917 32.84346 45.621628 31.694168L 36.925529 19.54727C 39.425835 18.644743 40.580719 18.227816 41.735455 17.810778C 42.890228 17.39385 44.045113 16.976812 46.545414 16.074284L 67.105682 23.93775C 70.169777 23.44289 71.755554 23.186792 74.051323 22.816238L 76.830688 22.367531L 84.162178 9.999983L 96.05172 9.999983L 103.383209 22.367531C 107.524513 23.036407 108.965347 23.268837 113.108215 23.93775L 133.668518 16.074284C 136.168823 16.976812 137.323669 17.39385 138.478439 17.810778C 139.633209 18.227816 140.788055 18.644743 143.288361 19.54727L 134.592377 31.694168C 135.481415 32.302223 136.169266 32.772564 136.795837 33.200901C 136.803909 33.206493 136.81221 33.212048 136.820358 33.217644C 137.986099 34.014717 138.944412 34.669998 140.603302 35.804993L 166.538956 35.448627C 167.795288 37.369358 168.162277 37.930706 168.80983 38.92091C 169.146896 39.436363 169.559891 40.068016 170.213882 41.067997ZM 46.412254 50.89542C 46.412254 53.449249 47.291595 55.900547 48.907227 58.177868C 54.912556 66.642761 71.091492 72.70636 90.106949 72.70636C 109.122398 72.70636 125.3013 66.642761 131.306671 58.177868C 132.922379 55.900547 133.801636 53.449249 133.801636 50.89542C 133.801636 38.849754 114.238426 29.084484 90.106949 29.084484C 65.975464 29.084484 46.412254 38.849754 46.412254 50.89542Z"></path></g></g></g><g id="g-root-sy_2_cu_1hduh5by6zt3f-stroke" data-item-order="-253828" transform="translate(150.68109130859375, 273.2041015625)"><g id="sy_2_cu_1hduh5by6zt3f-stroke" fill="none" stroke-linecap="round" stroke-linejoin="round" stroke-miterlimit="4" stroke="#ffffff" stroke-width="2"><g><path d="M 28.923563 115.156052C 32.640533 117.290169 33.040089 117.519455 35.467091 118.912361L 37.654255 120.167587L 37.654255 91.037788L 35.467091 89.782562C 33.040089 88.389656 32.640533 88.160378 28.923563 86.026253L 28.923563 115.156052ZM 125.609848 132.988586L 131.991959 132.050232L 138.374542 131.111298L 138.374542 101.981499L 131.991959 102.920441L 125.609848 103.858788L 125.609848 132.988586ZM 172.676712 120.086395L 181.377884 115.064674L 181.377884 85.934875L 172.676712 90.956596L 172.676712 120.086395ZM 198.276917 96.53933L 200.151199 89.968246L 200.151199 60.838448L 198.276917 67.409538L 198.276917 96.53933ZM 10.000003 90.082443C 10.506143 91.818604 10.731533 92.592857 10.956924 93.367081L 10.958739 93.373154C 11.183519 94.145447 11.40904 94.920181 11.913828 96.651711L 11.913828 67.521919C 11.407707 65.785904 11.182316 65.011536 10.956924 64.237282L 10.956183 64.234985C 10.731033 63.461468 10.505642 62.686989 10.000003 60.952644L 10.000003 90.082443ZM 72.021461 131.15097L 75.249168 131.621307L 75.316895 131.631119C 78.783585 132.136276 79.406479 132.226959 84.79744 133.013107L 84.79744 103.883308C 79.406479 103.09716 78.783585 103.006485 75.316895 102.501328L 75.249168 102.491508L 72.021461 102.021172L 72.021461 131.15097ZM 35.467091 118.912361C 36.052959 119.248535 36.756931 119.652611 37.654255 120.167587M 72.021461 131.15097C 73.348457 131.344315 74.386566 131.49556 75.249168 131.621307C 75.271873 131.624573 75.294449 131.627869 75.316895 131.631119M 125.609848 132.988586C 128.982605 132.492752 130.487259 132.271515 131.991959 132.050232C 133.496765 131.828995 135.001419 131.607605 138.374542 131.111298M 28.923563 86.026253L 28.977217 85.98632M 35.467091 89.782562C 36.052959 90.118744 36.756931 90.522812 37.654255 91.037788M 72.021461 102.021172C 73.348457 102.214523 74.386566 102.365761 75.249168 102.491508C 75.271873 102.494774 75.294449 102.49807 75.316895 102.501328M 125.609848 103.858788C 128.982605 103.362961 130.487259 103.141724 131.991959 102.920441C 133.496765 102.699196 135.001419 102.477806 138.374542 101.981499L 138.335205 101.115608M 62.670933 114.12825L 72.021484 117.116714L 72.021484 102.021027L 72.569237 88.161934L 62.670933 84.998451L 62.670933 114.12825ZM 99.290367 121.186867L 111.045799 121.179718L 111.045799 92.049919L 99.290367 92.057068L 99.290367 121.186867ZM 142.679199 115.666542C 144.069656 115.219757 145.459045 114.773346 147.624466 114.077133L 147.624466 84.947342C 145.515244 85.625435 144.142365 86.066666 142.787582 86.501892L 142.752609 86.513184L 142.679199 86.536743C 141.292374 86.982414 139.904465 87.428345 137.744492 88.122742L 138.374649 101.981354L 138.374649 117.049965L 142.679199 115.666542ZM 142.679199 115.666542C 141.432083 116.067322 140.184113 116.468323 138.374649 117.049965M 142.679199 86.536743C 142.70372 86.528854 142.728241 86.520966 142.752609 86.513184C 142.764282 86.509407 142.775955 86.505669 142.787582 86.501892M 56.374817 32.57151L 47.941982 19.361254L 47.941982 36.945469L 48.690624 37.006771C 51.354908 35.469555 52.508572 34.803455 54.542683 33.629162L 56.374817 32.57151ZM 173.850922 52.750443C 174.062347 53.475658 174.285812 54.242397 174.612289 55.363277L 194.28244 59.580036L 194.28244 40.694962L 172.922058 49.561707C 173.335068 50.980946 173.583313 51.832508 173.850922 52.750443ZM 153.606689 32.512875L 161.318176 36.939171L 161.960495 36.885757L 161.960495 19.292692L 153.606689 32.512875ZM 37.654682 120.167473L 62.671341 114.128143L 62.671341 84.99823L 37.654682 91.037682L 37.654682 120.167473ZM 42.599823 72.548157L 42.595341 72.543304C 41.652737 71.517578 40.907501 70.706657 39.510132 69.18718L 11.914253 67.521698L 11.914253 96.651489L 28.923988 97.67807L 28.923988 86.026031L 44.409027 74.516602L 42.599823 72.548157ZM 84.797859 133.012878L 99.290771 121.18679L 99.290771 92.056992L 84.797859 103.883087L 84.797859 133.012878ZM 111.046249 121.179604L 125.610291 132.988358L 125.610291 103.858566L 111.046249 92.049805L 111.046249 121.179604ZM 147.624878 114.077065L 172.677109 120.086174L 172.677109 90.956375L 147.624878 84.947266L 147.624878 114.077065ZM 168.55925 71.445465C 167.765839 72.314987 167.045334 73.104546 165.824341 74.443298L 181.378281 85.934616L 181.378281 97.579506L 198.277359 96.539078L 198.277359 67.409279L 170.692154 69.107697L 168.55925 71.445465ZM 36.335709 52.544834C 36.568508 51.729202 36.801289 50.91357 37.163712 49.643047L 15.750163 40.801529L 15.750163 59.711494L 35.507687 55.446766C 35.867573 54.184837 36.099632 53.371651 36.330967 52.561573L 36.335709 52.544834ZM 105.93663 35.540192C 81.805122 35.540192 62.241932 45.3055 62.241932 57.351128C 62.241932 62.948902 66.466949 68.05426 73.411865 71.916023C 81.41127 67.467911 93.019493 64.669991 105.93663 64.669991C 118.853745 64.669991 130.46196 67.467911 138.461472 71.916023C 145.406418 68.05426 149.631317 62.948902 149.631317 57.351128C 149.631317 45.3055 130.068222 35.540192 105.93663 35.540192ZM 36.335709 52.544834C 36.334133 52.550426 36.332542 52.556019 36.330967 52.561573M 42.599823 72.548157C 43.103279 73.095909 43.663311 73.705231 44.409027 74.516602M 168.55925 71.445465C 169.150452 70.79744 169.782333 70.105003 170.692154 69.107697M 106.598648 10.00291C 104.192299 10.004243 102.983894 10.005318 98.268867 10.008133L 91.045052 23.392775C 88.574356 23.756178 86.989212 23.989458 85.403328 24.22274C 83.820496 24.45554 82.236923 24.68856 79.771088 25.051224L 59.127163 15.766108C 57.227894 16.376608 56.004688 16.769867 55.023266 17.085451C 52.949223 17.752144 51.954685 18.071987 47.941559 19.361588L 56.37439 32.571693L 54.542259 33.629349C 52.508144 34.803753 51.354485 35.469738 48.690201 37.007065L 21.260967 34.760414C 19.804241 36.357006 19.154774 37.069111 18.505047 37.781322C 17.855579 38.493427 17.206112 39.205528 15.749626 40.801712L 37.163303 49.643196C 36.80088 50.913757 36.568081 51.7295 36.335281 52.545128C 36.33371 52.55072 36.332134 52.556202 36.330429 52.56176C 36.099205 53.371944 35.867146 54.18502 35.507263 55.447063L 10.000003 60.952721C 10.505642 62.687065 10.731033 63.461544 10.956183 64.235062L 10.956924 64.237358C 11.182316 65.011612 11.407707 65.785866 11.913828 67.521881L 39.509575 69.18737C 40.906963 70.706841 41.652309 71.517876 42.594917 72.543488L 42.5994 72.54834C 43.102871 73.0961 43.662884 73.705521 44.4086 74.516785L 28.923563 86.026215C 32.640533 88.160339 33.040089 88.389732 35.467091 89.7826C 36.052959 90.118813 36.756931 90.522888 37.654255 91.037865L 62.670933 84.998528L 72.569107 88.162041L 72.021461 102.021133C 73.348457 102.214485 74.386566 102.365837 75.249168 102.491478C 75.271873 102.494843 75.294449 102.498138 75.316895 102.501404C 78.783585 103.006447 79.406479 103.097237 84.79744 103.883377L 99.290344 92.057182L 111.045799 92.049995L 125.609848 103.858864C 128.982605 103.362923 130.487259 103.141792 131.991959 102.920517C 133.496765 102.699127 135.001419 102.47773 138.374542 101.98143L 137.74437 88.122818C 139.904465 87.428459 141.292252 86.982529 142.679199 86.536819C 142.70372 86.528931 142.728088 86.521042 142.752609 86.513298C 142.764282 86.509521 142.775909 86.505745 142.787582 86.501999C 144.142227 86.066734 145.515198 85.625549 147.624466 84.947449L 172.676712 90.956673L 181.377884 85.934952L 165.823883 74.443596C 167.044922 73.104729 167.765396 72.31517 168.558838 71.445648C 169.150055 70.797623 169.781921 70.105194 170.691742 69.10788L 198.276917 67.409607L 200.151199 60.838524L 174.611877 55.363464C 174.28537 54.242546 174.061951 53.475845 173.850479 52.750629C 173.58287 51.832691 173.334656 50.981133 172.921616 49.56189L 194.282028 40.695148C 192.81604 39.100296 192.162094 38.389046 191.508148 37.677647C 190.854156 36.966396 190.200104 36.255035 188.734268 34.660183L 161.317764 36.939468L 153.606247 32.513058L 161.960083 19.292877L 159.365479 18.463875C 156.057541 17.407074 155.631134 17.270765 150.752274 15.711251L 130.1642 25.021481C 125.28289 24.309525 123.854164 24.101358 119.058319 23.402479L 118.879524 23.376402L 111.57415 9.999984L 106.598648 10.00291ZM 105.936203 79.162247C 93.019081 79.162247 81.410843 76.364212 73.411446 71.916214C 66.466415 68.054558 62.241505 62.9492 62.241505 57.351311C 62.241505 45.305645 81.804718 35.540375 105.936203 35.540375C 130.06781 35.540375 149.630875 45.305645 149.630875 57.351311C 149.630875 62.9492 145.405975 68.054558 138.461075 71.916214C 130.461548 76.364212 118.853333 79.162247 105.936203 79.162247ZM 36.335281 52.545128L 36.330429 52.56176M 42.5994 72.54834L 44.4086 74.516785M 35.467091 89.7826L 37.654255 91.037865M 72.021461 102.021133L 75.249168 102.491478L 75.316895 102.501404M 125.609848 103.858864L 131.991959 102.920517L 138.374542 101.98143M 142.679199 86.536819L 142.752609 86.513298L 142.787582 86.501999M 181.377884 85.934952L 181.377884 85.943802M 168.558838 71.445648L 170.691742 69.10788"></path></g></g></g><g id="g-root-sy_0_line_1cyng3zy6zqpw-stroke" data-item-order="-253821" transform="translate(245.75595092773438, 404.458984375)"><g id="sy_0_line_1cyng3zy6zqpw-stroke" fill="none" stroke-linecap="round" stroke-linejoin="round" stroke-miterlimit="4" stroke="#484848" stroke-width="2"><g><path d="M 10.004059 75.540977L 10.004059 12.000977"></path><path d="M 16.504059 18.000977L 10.004059 11.500977L 3.504059 18.000977" stroke-dasharray="none"></path></g></g></g><g id="g-root-sy_0_line_1_1430fv3y6zril-stroke" data-item-order="-253817" transform="translate(537.0538940429688, 397.1767578125)"><g id="sy_0_line_1_1430fv3y6zril-stroke" fill="none" stroke-linecap="round" stroke-linejoin="round" stroke-miterlimit="4" stroke="#484848" stroke-width="2"><g><path d="M 9.996094 82.823418L 9.996094 12.003418"></path><path d="M 16.496094 18.003418L 9.996094 11.503418L 3.496094 18.003418" stroke-dasharray="none"></path></g></g></g><g id="g-root-sy_0_line_2_1430fv3y6zrim-stroke" data-item-order="-253813" transform="translate(100.10693359375, 135.00830078125)"><g id="sy_0_line_2_1430fv3y6zrim-stroke" fill="none" stroke-linecap="round" stroke-linejoin="round" stroke-miterlimit="4" stroke="#484848" stroke-width="2"><g><path d="M 10.003052 109.951465L 10.003052 10.001465"></path><path d="M 3.503052 104.001465L 10.003052 110.501465L 16.503052 104.001465" stroke-dasharray="none"></path></g></g></g><g id="g-root-sy_0_line_3_zn6xqny6zsav-stroke" data-item-order="-253809" transform="translate(391.4049072265625, 135.00830078125)"><g id="sy_0_line_3_zn6xqny6zsav-stroke" fill="none" stroke-linecap="round" stroke-linejoin="round" stroke-miterlimit="4" stroke="#484848" stroke-width="2"><g><path d="M 9.995056 51.691465L 9.995056 10.001465"></path><path d="M 3.495056 45.701465L 9.995056 52.201465L 16.495056 45.701465" stroke-dasharray="none"></path></g></g></g><g id="g-root-sy_0_line_4_zn6xqny6zsaw-stroke" data-item-order="-253805" transform="translate(682.7028198242188, 135.00830078125)"><g id="sy_0_line_4_zn6xqny6zsaw-stroke" fill="none" stroke-linecap="round" stroke-linejoin="round" stroke-miterlimit="4" stroke="#484848" stroke-width="2"><g><path d="M 9.99707 88.111465L 9.99707 10.001465"></path><path d="M 3.49707 82.101465L 9.99707 88.601465L 16.49707 82.101465" stroke-dasharray="none"></path></g></g></g><g id="g-root-re_1d1rgwfz0gbuy-stroke" data-item-order="-27360" transform="translate(178.99996948242188, 7.99951171875)"><g id="re_1d1rgwfz0gbuy-stroke" fill="none" stroke-linecap="round" stroke-linejoin="round" stroke-miterlimit="4" stroke="#ffffff" stroke-width="2"><g><path d="M 34 10L 442 10C 442 10 466 10 466 34L 466 46C 466 46 466 70 442 70L 34 70C 34 70 10 70 10 46L 10 34C 10 34 10 10 34 10"></path></g></g></g><g id="g-root-tx__v7dfm7y6zt35-stroke" data-item-order="0" transform="translate(610.7028198242188, 72.443359375)"></g><g id="g-root-tx__qtfcr3y6zs3x-stroke" data-item-order="0" transform="translate(28.10693359375, 96.443359375)"></g><g id="g-root-tx__1uqjxovy6ztor-stroke" data-item-order="0" transform="translate(325.4049072265625, 96.443359375)"></g><g id="g-root-tx__1czwea7y6zsw4-stroke" data-item-order="0" transform="translate(149.75592041015625, 484.56591796875)"></g><g id="g-root-tx__90we33y6zsay-stroke" data-item-order="0" transform="translate(459.05389404296875, 484.56591796875)"></g><g id="g-root-tx__dhyudry6ztou-stroke" data-item-order="1000000000" transform="translate(190.99996948242188, 19.99951171875)"></g></g></g><path id="w1q5py0y1l7tn2m" d="M65.283 12.757a.35.35 0 0 0 .584.157l5.203-5.141-6.183 3.523.396 1.461zm-2.216-11.7a.35.35 0 0 0-.522.305v3.111l3.276-1.868-2.754-1.548zm3.728 2.105l-4.25 2.421v2.445l6.391-3.644-2.141-1.222zm4.708 3.303a.35.35 0 0 0 0-.609l-1.592-.9-7.365 4.199v1.782a.35.35 0 0 0 .523.305l8.435-4.777z M44.542 2.513c0-.433.355-.783.792-.783s.792.35.792.783-.355.783-.792.783-.792-.35-.792-.783zm59.171 0c0-.433.355-.783.792-.783s.792.35.792.783-.355.783-.792.783-.792-.35-.792-.783zm-85.951 7.636h-1.27v-.487c-.276.201-.864.609-1.881.609-1.202 0-2.274-.794-2.137-2.078.118-1.106 1.153-1.584 1.848-1.727l2.17-.345c0-.539-.29-.956-1.064-1.006s-1.21.305-1.571 1.017l-1.124-.605c1.218-2.631 5.029-1.764 5.029.414v4.207zm-1.27-2.86c.006.396-.062 1.112-.819 1.59-.587.37-1.841.299-1.903-.395-.049-.555.461-.791.906-.898l1.816-.297zm72.662 2.86h-1.27v-.487c-.276.201-.864.609-1.881.609-1.202 0-2.274-.794-2.137-2.078.118-1.106 1.153-1.584 1.848-1.727l2.17-.345c0-.539-.29-.956-1.064-1.006s-1.21.305-1.571 1.017l-1.124-.605c1.218-2.631 5.029-1.764 5.029.414v4.207zm-1.27-2.86c.006.396-.062 1.112-.82 1.59-.587.37-1.841.299-1.903-.395-.049-.555.461-.791.906-.898l1.816-.297zM99.096 10.149H97.85v-8.45h1.246v4.895l2.68-2.559h1.738l-2.633 2.535 2.715 3.578h-1.556l-2.077-2.707-.867.844v1.863zm6.053-6.114h-1.255v6.113h1.255V4.035zm-59.2 0h-1.255v6.113h1.255V4.035zm5.584 6.113V1.697h1.255v2.695c.361-.346 1-.485 1.47-.485 1.452 0 2.477 1.082 2.457 2.448v3.792h-1.27v-3.68c0-.408-.214-1.339-1.315-1.339-.968 0-1.342.756-1.342 1.339v3.681h-1.255zm-4.76-4.894V4.039h.621a.45.45 0 0 0 .45-.45v-.855h1.251v1.305h1.309v1.215h-1.309v3.109c0 .293.105.664.648.664.365 0 .531-.035.736-.07v1.137s-.361.113-.857.113c-1.398 0-1.777-1.051-1.777-1.788V5.254h-1.071zM36.528 4.039h-1.394l2.191 6.106h1.125l1.234-3.918 1.238 3.918h1.129l2.188-6.106h-1.383l-1.359 3.93-1.256-3.93h-1.124l-1.242 3.957-1.348-3.957zM26.212 7.141c-.02 1.566 1.187 3.129 3.223 3.129 1.566 0 2.383-.918 2.734-1.719L31.172 8c-.315.399-.801 1.094-1.738 1.094-1.145 0-1.825-.781-1.891-1.52h4.625c.074-.284.148-.995-.03-1.559-.336-1.064-1.221-2.102-2.839-2.102s-3.088 1.152-3.088 3.227zm1.363-.75h3.348c-.055-.43-.566-1.301-1.623-1.301a1.79 1.79 0 0 0-1.725 1.301zm-8.758.75c.038 1.758 1.277 3.133 3.145 3.133 1.074 0 1.723-.477 1.961-.672v.547h1.242V1.703h-1.258v2.888c-.414-.36-1.062-.68-1.93-.68-1.91 0-3.198 1.473-3.16 3.23zm1.309-.08c0 1.119.723 1.978 1.836 1.978a1.88 1.88 0 0 0 1.94-1.904c0-1.371-1.011-1.99-1.972-1.99s-1.805.798-1.805 1.916zm76.683-.028C96.771 5.275 95.532 3.9 93.664 3.9c-1.074 0-1.723.477-1.961.672v-.547h-1.242v8.22h1.258V9.583c.414.36 1.063.68 1.93.68 1.91 0 3.198-1.473 3.16-3.23zm-1.309.08c0-1.119-.723-1.978-1.836-1.978a1.88 1.88 0 0 0-1.94 1.904c0 1.371 1.011 1.99 1.972 1.99S95.5 8.231 95.5 7.113zM106.441 10.173V4.036h1.254v.382c.361-.346 1-.485 1.47-.485 1.452 0 2.477 1.082 2.457 2.448v3.792h-1.27V6.492c0-.408-.214-1.339-1.315-1.339-.969 0-1.342.756-1.342 1.339v3.681h-1.254zm-30.383-.021V1.824h1.084l4.215 5.777V1.824h1.32v8.328h-1.094l-4.207-5.796v5.796h-1.319zM5.24 10.149H4V2.377h1.014l2.664 3.597 2.654-3.592h1.03v7.766h-1.256V4.762L7.678 8.068 5.24 4.742v5.407z" transform="translate(689, 542.56591796875)" fill="#80808088" stroke="none"></path></svg>